<svg width="25" height="24" viewBox="0 0 25 24" fill="none" xmlns="http://www.w3.org/2000/svg">
<path d="M21.0421 16.7498H22.1961C22.6101 16.7498 22.9461 16.4138 22.9461 15.9998C22.9461 15.5858 22.6101 15.2498 22.1961 15.2498H21.0381C19.7341 15.2498 19.1891 15.2418 18.7821 15.0268C18.3443 14.7959 17.9475 14.2593 17.1563 13.1893L14.8333 10.0523C14.5443 9.66196 13.8717 8.75355 12.7481 9.11679C12.2441 9.27979 11.8201 9.6398 11.4471 9.9568C11.438 9.96452 11.4289 9.97221 11.4199 9.97987C11.305 10.0774 11.1964 10.1695 11.0981 10.2428C10.8111 10.4578 10.4501 10.4138 10.2001 10.1318C9.86011 9.7488 9.86011 9.10179 10.2001 8.71879L11.6661 7.06879C12.1671 6.50479 12.5991 6.0188 13.1791 5.8588C13.7481 5.7028 14.4981 5.74778 15.1601 5.78878L15.2601 5.79479C15.7391 5.82379 16.2021 6.04181 16.5651 6.40981C17.3751 7.22681 18.3131 7.9828 19.6811 7.9828L22.1981 7.9828C22.6121 7.9828 22.9481 7.6468 22.9481 7.2328C22.9481 6.8188 22.6121 6.4828 22.1981 6.4828L19.6811 6.4828C18.9061 6.4828 18.3221 6.0508 17.6321 5.3548C17.0101 4.7248 16.2011 4.34879 15.3531 4.29679L15.2487 4.29046C14.472 4.24354 13.5912 4.19033 12.7841 4.41181C12.2869 4.54858 11.8828 4.78922 11.5284 5.07954C11.5149 5.07295 11.5011 5.06672 11.487 5.06086L10.094 4.48186C8.80201 3.94486 7.35901 4.35686 6.41801 5.52986C6.04601 5.99386 5.56501 6.24985 5.06501 6.24985L2.20001 6.24985C1.78601 6.24985 1.45001 6.58585 1.45001 6.99985C1.45001 7.41385 1.78601 7.74985 2.20001 7.74985L5.06501 7.74985C6.01501 7.74985 6.93401 7.28285 7.58801 6.46885C8.10901 5.81885 8.84901 5.58884 9.51901 5.86684L10.403 6.23426L9.08211 7.72179C8.23411 8.67579 8.23411 10.1718 9.08211 11.1268C9.85711 11.9988 11.0851 12.1298 12.0021 11.4408C12.1431 11.3348 12.2851 11.2148 12.4211 11.0988C12.6881 10.8718 12.9911 10.6148 13.2131 10.5428C13.2381 10.5348 13.2501 10.5338 13.2501 10.5338C13.2961 10.5478 13.3991 10.6298 13.6321 10.9458L15.9607 14.09C16.1268 14.3144 16.2791 14.5201 16.4217 14.7088L15.09 15.9969C13.612 17.4258 12.869 18.1429 12.092 18.2359C12.0575 18.2398 12.0231 18.2428 11.9886 18.2457L11.987 18.2458C11.2075 18.3018 10.3321 17.7376 8.58423 16.6109L8.57482 16.6049C7.59173 15.9714 7.04865 15.6214 6.40101 15.4259L6.31101 15.3989C5.66401 15.2169 5.04801 15.2168 3.82101 15.2168H2.20001C1.78601 15.2168 1.45001 15.5528 1.45001 15.9668C1.45001 16.3808 1.78601 16.7168 2.20001 16.7168H3.82101C4.905 16.7168 5.45101 16.7168 5.89901 16.8408L5.97101 16.8628C6.41305 16.9965 6.86503 17.2876 7.76807 17.869L7.77738 17.875C9.62107 19.0635 10.6855 19.7497 11.8705 19.7499C11.9444 19.7498 12.0192 19.7478 12.094 19.7408H12.111C12.1667 19.7359 12.2233 19.7308 12.274 19.7249C13.548 19.5729 14.466 18.6858 16.138 17.0698L17.3964 15.8528C17.6149 16.0578 17.8365 16.2211 18.0861 16.3528C18.8381 16.7498 19.6211 16.7498 21.0421 16.7498Z" fill="white"/>
</svg>
