<svg width="24" height="24" viewBox="0 0 24 24" fill="none" xmlns="http://www.w3.org/2000/svg">
<path d="M17.3971 15.4446C17.2752 15.2832 16.9113 14.8015 16.6946 14.5237C16.2605 13.9675 15.6674 13.2284 15.0276 12.4916C14.3845 11.7509 13.709 11.0296 13.1089 10.4994C12.808 10.2335 12.5437 10.0315 12.3255 9.89999C12.1204 9.77631 11.9992 9.7506 11.9992 9.7506C11.9992 9.7506 11.8816 9.77632 11.6764 9.89998C11.4583 10.0315 11.194 10.2335 10.893 10.4994C10.2929 11.0296 9.61742 11.7509 8.97438 12.4916C8.33457 13.2285 7.74146 13.9676 7.30739 14.5238C7.09066 14.8015 6.72726 15.2826 6.60537 15.4439C6.35974 15.7775 5.88974 15.8494 5.55621 15.6038C5.22269 15.3581 5.15144 14.8886 5.39707 14.5551L5.39899 14.5526C5.52683 14.3833 5.90373 13.8843 6.12486 13.6009C6.56874 13.0322 7.17917 12.2713 7.84173 11.5082C8.50105 10.7488 9.22672 9.97007 9.89983 9.37532C10.2355 9.0787 10.5758 8.81198 10.902 8.61536C11.2076 8.43114 11.5945 8.24986 12.001 8.24986C12.4075 8.24987 12.7944 8.43115 13.1 8.61536C13.4261 8.81199 13.7664 9.07871 14.1021 9.37532C14.7752 9.97007 15.5009 10.7488 16.1602 11.5081C16.8228 12.2712 17.4332 13.0321 17.8771 13.6009C18.0984 13.8845 18.4753 14.3835 18.6029 14.5524L18.6045 14.5546C18.8501 14.8881 18.7793 15.3581 18.4457 15.6037C18.1122 15.8493 17.6427 15.7781 17.3971 15.4446Z" fill="white"/>
</svg>
