<svg width="44" height="44" viewBox="0 0 44 44" fill="none" xmlns="http://www.w3.org/2000/svg">
<path d="M22 1C10.402 1 1 10.402 1 22C1 33.598 10.402 43 22 43C33.598 43 43 33.598 43 22C43 10.402 33.598 1 22 1Z" fill="#F3F4F6" stroke="white" stroke-width="2"/>
<path fill-rule="evenodd" clip-rule="evenodd" d="M21.9997 7.66667C18.1337 7.66667 14.9997 10.8007 14.9997 14.6667C14.9997 18.5327 18.1337 21.6667 21.9997 21.6667C25.8657 21.6667 28.9997 18.5327 28.9997 14.6667C28.9997 10.8007 25.8657 7.66667 21.9997 7.66667ZM16.9997 14.6667C16.9997 11.9052 19.2383 9.66667 21.9997 9.66667C24.7611 9.66667 26.9997 11.9052 26.9997 14.6667C26.9997 17.4281 24.7611 19.6667 21.9997 19.6667C19.2383 19.6667 16.9997 17.4281 16.9997 14.6667Z" fill="#161616"/>
<path fill-rule="evenodd" clip-rule="evenodd" d="M30.3048 26.1056C30.088 25.9833 29.8965 25.8752 29.7414 25.7829C25.0027 22.9613 18.9971 22.9613 14.2584 25.7829C14.1033 25.8752 13.9118 25.9833 13.6949 26.1057C12.7445 26.6419 11.3078 27.4524 10.3236 28.4158C9.708 29.0183 9.12313 29.8123 9.0168 30.785C8.90372 31.8195 9.35501 32.7902 10.2604 33.6528C11.8223 35.1408 13.6967 36.3333 16.1211 36.3333H27.8788C30.3032 36.3333 32.1776 35.1408 33.7395 33.6528C34.6448 32.7902 35.0961 31.8195 34.9831 30.785C34.8767 29.8123 34.2919 29.0183 33.6763 28.4158C32.6921 27.4524 31.2552 26.6418 30.3048 26.1056ZM15.2816 27.5013C19.3899 25.0551 24.61 25.0551 28.7182 27.5013C28.9421 27.6346 29.1873 27.7738 29.4443 27.9195C30.3944 28.4586 31.5038 29.088 32.2773 29.8451C32.7575 30.3151 32.9622 30.7028 32.9949 31.0023C33.0209 31.2402 32.9608 31.6323 32.3599 32.2047C30.9788 33.5205 29.5754 34.3333 27.8788 34.3333H16.1211C14.4245 34.3333 13.0211 33.5205 11.6399 32.2047C11.0391 31.6323 10.979 31.2402 11.005 31.0023C11.0377 30.7028 11.2424 30.3151 11.7226 29.8451C12.496 29.088 13.6054 28.4586 14.5555 27.9196C14.8124 27.7738 15.0578 27.6346 15.2816 27.5013Z" fill="#161616"/>
</svg>
