<svg width="32" height="32" viewBox="0 0 32 32" fill="none" xmlns="http://www.w3.org/2000/svg">
<path d="M0 4C0 1.79086 1.79086 0 4 0H28C30.2091 0 32 1.79086 32 4V28C32 30.2091 30.2091 32 28 32H4C1.79086 32 0 30.2091 0 28V4Z" fill="#F3F4F6"/>
<path d="M23.2914 15.9997C23.2914 15.6884 23.1533 15.3996 23.0226 15.1827C22.8815 14.9487 22.6918 14.7071 22.4837 14.4716C22.0662 13.999 21.5215 13.4915 20.9928 13.0325C20.4611 12.5707 19.9312 12.1455 19.5353 11.8365C19.3371 11.6818 19.1717 11.5556 19.0555 11.4678C18.9974 11.4239 18.9516 11.3896 18.92 11.3661L18.8837 11.3392L18.8741 11.332L18.8708 11.3296C18.5928 11.1248 18.2012 11.1839 17.9965 11.4618C17.7918 11.7397 17.8511 12.131 18.129 12.3357L18.1396 12.3435L18.173 12.3684C18.2025 12.3904 18.2462 12.4231 18.302 12.4652C18.4137 12.5496 18.5738 12.6718 18.7662 12.8219C19.1516 13.1227 19.6633 13.5335 20.1732 13.9763C20.6863 14.4218 21.1832 14.8874 21.5469 15.2992C21.5699 15.3252 21.5922 15.3508 21.6137 15.3759L9.33301 15.3759C8.98783 15.3759 8.70801 15.6558 8.70801 16.0009C8.70801 16.3461 8.98783 16.6259 9.33301 16.6259L21.6116 16.6259C21.5907 16.6503 21.5692 16.675 21.5469 16.7002C21.1832 17.112 20.6863 17.5777 20.1732 18.0231C19.6633 18.4659 19.1516 18.8767 18.7662 19.1775C18.5738 19.3276 18.4137 19.4498 18.302 19.5342C18.2462 19.5764 18.2025 19.6091 18.173 19.6311L18.1396 19.6559L18.129 19.6637C17.8511 19.8684 17.7918 20.2597 17.9965 20.5376C18.2012 20.8155 18.5928 20.8746 18.8708 20.6698L18.8741 20.6674L18.8837 20.6603L18.92 20.6333C18.9516 20.6098 18.9974 20.5755 19.0555 20.5316C19.1717 20.4438 19.3371 20.3176 19.5353 20.1629C19.9312 19.8539 20.4611 19.4287 20.9928 18.967C21.5215 18.5079 22.0662 18.0004 22.4837 17.5279C22.6918 17.2923 22.8815 17.0507 23.0226 16.8167C23.1525 16.6011 23.2897 16.3145 23.2913 16.0053" fill="#161616"/>
</svg>
