<svg width="32" height="32" viewBox="0 0 32 32" fill="none" xmlns="http://www.w3.org/2000/svg">
<path d="M0 16C0 7.16344 7.16344 0 16 0C24.8366 0 32 7.16344 32 16C32 24.8366 24.8366 32 16 32C7.16344 32 0 24.8366 0 16Z" fill="#F3F4F6"/>
<path fill-rule="evenodd" clip-rule="evenodd" d="M9.72511 9.72471C9.96919 9.48064 10.3649 9.48064 10.609 9.72471L16.0004 15.1161L21.3918 9.72471C21.6359 9.48064 22.0316 9.48064 22.2757 9.72471C22.5197 9.96879 22.5197 10.3645 22.2757 10.6086L16.8843 16L22.2757 21.3914C22.5197 21.6355 22.5197 22.0312 22.2757 22.2753C22.0316 22.5193 21.6359 22.5193 21.3918 22.2753L16.0004 16.8839L10.609 22.2753C10.3649 22.5193 9.96919 22.5193 9.72511 22.2753C9.48103 22.0312 9.48103 21.6355 9.72511 21.3914L15.1165 16L9.72511 10.6086C9.48103 10.3645 9.48103 9.96879 9.72511 9.72471Z" fill="#161616"/>
</svg>
