<svg width="21" height="20" viewBox="0 0 21 20" fill="none" xmlns="http://www.w3.org/2000/svg">
<path d="M9.66668 10.2083C9.3215 10.2083 9.04168 10.4882 9.04168 10.8333C9.04168 11.1785 9.3215 11.4583 9.66668 11.4583H13.8333C14.1785 11.4583 14.4583 11.1785 14.4583 10.8333C14.4583 10.4882 14.1785 10.2083 13.8333 10.2083H9.66668Z" fill="#6C737F"/>
<path d="M7.16668 10.2083C6.8215 10.2083 6.54168 10.4882 6.54168 10.8333C6.54168 11.1785 6.8215 11.4583 7.16668 11.4583H7.17416C7.51934 11.4583 7.79916 11.1785 7.79916 10.8333C7.79916 10.4882 7.51934 10.2083 7.17416 10.2083H7.16668Z" fill="#6C737F"/>
<path d="M7.16668 13.5417C6.8215 13.5417 6.54168 13.8215 6.54168 14.1667C6.54168 14.5119 6.8215 14.7917 7.16668 14.7917H11.3333C11.6785 14.7917 11.9583 14.5119 11.9583 14.1667C11.9583 13.8215 11.6785 13.5417 11.3333 13.5417H7.16668Z" fill="#6C737F"/>
<path d="M13.8259 13.5417C13.4807 13.5417 13.2009 13.8215 13.2009 14.1667C13.2009 14.5119 13.4807 14.7917 13.8259 14.7917H13.8333C14.1785 14.7917 14.4583 14.5119 14.4583 14.1667C14.4583 13.8215 14.1785 13.5417 13.8333 13.5417H13.8259Z" fill="#6C737F"/>
<path fill-rule="evenodd" clip-rule="evenodd" d="M6.12501 1.66667C6.12501 1.32149 5.84519 1.04167 5.50001 1.04167C5.15483 1.04167 4.87501 1.32149 4.87501 1.66667V2.19566C4.20438 2.38574 3.63876 2.69467 3.16796 3.20364C2.51971 3.90446 2.23155 4.78994 2.09355 5.8996C1.95833 6.98693 1.95833 8.38039 1.95834 10.1584V10.675C1.95833 12.453 1.95833 13.8464 2.09355 14.9337C2.23155 16.0434 2.51971 16.9289 3.16796 17.6297C3.82263 18.3375 4.66065 18.6584 5.70942 18.8108C6.72444 18.9584 8.0213 18.9584 9.65771 18.9583H11.3423C12.9787 18.9584 14.2756 18.9584 15.2906 18.8108C16.3394 18.6584 17.1774 18.3375 17.8321 17.6297C18.4803 16.9289 18.7685 16.0434 18.9065 14.9337C19.0417 13.8464 19.0417 12.4529 19.0417 10.6749V10.1584C19.0417 8.38041 19.0417 6.98693 18.9065 5.8996C18.7685 4.78994 18.4803 3.90446 17.8321 3.20364C17.3613 2.69467 16.7956 2.38574 16.125 2.19566V1.66667C16.125 1.32149 15.8452 1.04167 15.5 1.04167C15.1548 1.04167 14.875 1.32149 14.875 1.66667V1.97158C13.9283 1.87498 12.7633 1.87499 11.3423 1.87501H9.65771C8.2367 1.87499 7.07173 1.87498 6.12501 1.97158V1.66667ZM4.08559 4.05244C4.3017 3.8188 4.55942 3.63993 4.89884 3.50488C4.9734 3.76665 5.21432 3.95834 5.50001 3.95834C5.84519 3.95834 6.12501 3.67852 6.12501 3.33334V3.22883C7.00918 3.1263 8.15199 3.12501 9.70834 3.12501H11.2917C12.848 3.12501 13.9908 3.1263 14.875 3.22883V3.33334C14.875 3.67852 15.1548 3.95834 15.5 3.95834C15.7857 3.95834 16.0266 3.76665 16.1012 3.50488C16.4406 3.63993 16.6983 3.8188 16.9144 4.05244C17.308 4.4779 17.5412 5.06114 17.6645 6.04167H3.33552C3.45878 5.06114 3.69204 4.4779 4.08559 4.05244ZM3.24078 7.29167C3.2088 8.08908 3.20834 9.04234 3.20834 10.2027V10.6306C3.20834 12.4626 3.20948 13.7783 3.334 14.7795C3.45685 15.7674 3.69042 16.3537 4.08559 16.7809C4.47435 17.2012 4.99774 17.4443 5.88921 17.5738C6.80398 17.7068 8.00991 17.7083 9.70834 17.7083H11.2917C12.9901 17.7083 14.196 17.7068 15.1108 17.5738C16.0023 17.4443 16.5257 17.2012 16.9144 16.7809C17.3096 16.3537 17.5432 15.7674 17.666 14.7795C17.7905 13.7783 17.7917 12.4626 17.7917 10.6306V10.2027C17.7917 9.04234 17.7912 8.08908 17.7592 7.29167H3.24078Z" fill="#6C737F"/>
</svg>
