<svg width="20" height="20" viewBox="0 0 20 20" fill="none" xmlns="http://www.w3.org/2000/svg">
<path fill-rule="evenodd" clip-rule="evenodd" d="M3.72511 3.72471C3.96919 3.48064 4.36492 3.48064 4.60899 3.72471L10.0004 9.11611L15.3918 3.72471C15.6359 3.48064 16.0316 3.48064 16.2757 3.72471C16.5197 3.96879 16.5197 4.36452 16.2757 4.6086L10.8843 9.99999L16.2757 15.3914C16.5197 15.6355 16.5197 16.0312 16.2757 16.2753C16.0316 16.5193 15.6359 16.5193 15.3918 16.2753L10.0004 10.8839L4.60899 16.2753C4.36492 16.5193 3.96919 16.5193 3.72511 16.2753C3.48103 16.0312 3.48103 15.6355 3.72511 15.3914L9.1165 9.99999L3.72511 4.6086C3.48103 4.36452 3.48103 3.96879 3.72511 3.72471Z" fill="#161616"/>
</svg>
