<svg width="16" height="16" viewBox="0 0 16 16" fill="none" xmlns="http://www.w3.org/2000/svg">
<path d="M10.3536 6.35359C10.5488 6.15833 10.5488 5.84175 10.3536 5.64648C10.1583 5.45121 9.84175 5.4512 9.64648 5.64646L7.99989 7.29294L6.35356 5.64672C6.15829 5.45146 5.84171 5.45147 5.64646 5.64674C5.4512 5.84201 5.45121 6.15859 5.64648 6.35385L7.29276 8.00002L5.64648 9.64619C5.45121 9.84145 5.4512 10.158 5.64646 10.3533C5.84171 10.5486 6.15829 10.5486 6.35356 10.3533L7.99989 8.7071L9.64648 10.3536C9.84175 10.5488 10.1583 10.5488 10.3536 10.3536C10.5488 10.1583 10.5488 9.84171 10.3536 9.64646L8.70702 8.00002L10.3536 6.35359Z" fill="#161616"/>
<path fill-rule="evenodd" clip-rule="evenodd" d="M8.03814 1.16669H7.9619C6.50143 1.16668 5.35431 1.16667 4.4587 1.28708C3.54093 1.41047 2.81276 1.6685 2.24063 2.24063C1.6685 2.81276 1.41047 3.54093 1.28708 4.4587C1.16667 5.35431 1.16668 6.50143 1.16669 7.9619V8.03814C1.16668 9.49861 1.16667 10.6457 1.28708 11.5413C1.41047 12.4591 1.6685 13.1873 2.24063 13.7594C2.81276 14.3315 3.54093 14.5896 4.4587 14.713C5.35431 14.8334 6.50142 14.8334 7.96189 14.8334H8.03813C9.49859 14.8334 10.6457 14.8334 11.5413 14.713C12.4591 14.5896 13.1873 14.3315 13.7594 13.7594C14.3315 13.1873 14.5896 12.4591 14.713 11.5413C14.8334 10.6457 14.8334 9.49862 14.8334 8.03815V7.96191C14.8334 6.50145 14.8334 5.35431 14.713 4.4587C14.5896 3.54093 14.3315 2.81276 13.7594 2.24063C13.1873 1.6685 12.4591 1.41047 11.5413 1.28708C10.6457 1.16667 9.49861 1.16668 8.03814 1.16669ZM2.94774 2.94774C3.3031 2.59237 3.78507 2.38665 4.59195 2.27817C5.41322 2.16775 6.4931 2.16669 8.00002 2.16669C9.50694 2.16669 10.5868 2.16775 11.4081 2.27817C12.215 2.38665 12.6969 2.59237 13.0523 2.94774C13.4077 3.3031 13.6134 3.78507 13.7219 4.59195C13.8323 5.41322 13.8334 6.4931 13.8334 8.00002C13.8334 9.50694 13.8323 10.5868 13.7219 11.4081C13.6134 12.215 13.4077 12.6969 13.0523 13.0523C12.6969 13.4077 12.215 13.6134 11.4081 13.7219C10.5868 13.8323 9.50694 13.8334 8.00002 13.8334C6.4931 13.8334 5.41322 13.8323 4.59195 13.7219C3.78507 13.6134 3.3031 13.4077 2.94774 13.0523C2.59237 12.6969 2.38665 12.215 2.27817 11.4081C2.16775 10.5868 2.16669 9.50694 2.16669 8.00002C2.16669 6.4931 2.16775 5.41322 2.27817 4.59195C2.38665 3.78507 2.59237 3.3031 2.94774 2.94774Z" fill="#161616"/>
<path d="M10.3536 6.35359C10.5488 6.15833 10.5488 5.84175 10.3536 5.64648C10.1583 5.45121 9.84175 5.4512 9.64648 5.64646L7.99989 7.29294L6.35356 5.64672C6.15829 5.45146 5.84171 5.45147 5.64646 5.64674C5.4512 5.84201 5.45121 6.15859 5.64648 6.35385L7.29276 8.00002L5.64648 9.64619C5.45121 9.84145 5.4512 10.158 5.64646 10.3533C5.84171 10.5486 6.15829 10.5486 6.35356 10.3533L7.99989 8.7071L9.64648 10.3536C9.84175 10.5488 10.1583 10.5488 10.3536 10.3536C10.5488 10.1583 10.5488 9.84171 10.3536 9.64646L8.70702 8.00002L10.3536 6.35359Z" stroke="#161616"/>
<path fill-rule="evenodd" clip-rule="evenodd" d="M8.03814 1.16669H7.9619C6.50143 1.16668 5.35431 1.16667 4.4587 1.28708C3.54093 1.41047 2.81276 1.6685 2.24063 2.24063C1.6685 2.81276 1.41047 3.54093 1.28708 4.4587C1.16667 5.35431 1.16668 6.50143 1.16669 7.9619V8.03814C1.16668 9.49861 1.16667 10.6457 1.28708 11.5413C1.41047 12.4591 1.6685 13.1873 2.24063 13.7594C2.81276 14.3315 3.54093 14.5896 4.4587 14.713C5.35431 14.8334 6.50142 14.8334 7.96189 14.8334H8.03813C9.49859 14.8334 10.6457 14.8334 11.5413 14.713C12.4591 14.5896 13.1873 14.3315 13.7594 13.7594C14.3315 13.1873 14.5896 12.4591 14.713 11.5413C14.8334 10.6457 14.8334 9.49862 14.8334 8.03815V7.96191C14.8334 6.50145 14.8334 5.35431 14.713 4.4587C14.5896 3.54093 14.3315 2.81276 13.7594 2.24063C13.1873 1.6685 12.4591 1.41047 11.5413 1.28708C10.6457 1.16667 9.49861 1.16668 8.03814 1.16669ZM2.94774 2.94774C3.3031 2.59237 3.78507 2.38665 4.59195 2.27817C5.41322 2.16775 6.4931 2.16669 8.00002 2.16669C9.50694 2.16669 10.5868 2.16775 11.4081 2.27817C12.215 2.38665 12.6969 2.59237 13.0523 2.94774C13.4077 3.3031 13.6134 3.78507 13.7219 4.59195C13.8323 5.41322 13.8334 6.4931 13.8334 8.00002C13.8334 9.50694 13.8323 10.5868 13.7219 11.4081C13.6134 12.215 13.4077 12.6969 13.0523 13.0523C12.6969 13.4077 12.215 13.6134 11.4081 13.7219C10.5868 13.8323 9.50694 13.8334 8.00002 13.8334C6.4931 13.8334 5.41322 13.8323 4.59195 13.7219C3.78507 13.6134 3.3031 13.4077 2.94774 13.0523C2.59237 12.6969 2.38665 12.215 2.27817 11.4081C2.16775 10.5868 2.16669 9.50694 2.16669 8.00002C2.16669 6.4931 2.16775 5.41322 2.27817 4.59195C2.38665 3.78507 2.59237 3.3031 2.94774 2.94774Z" stroke="#161616"/>
</svg>
