<svg width="22" height="16" viewBox="0 0 22 16" fill="none" xmlns="http://www.w3.org/2000/svg">
<path d="M20.0421 12.7498H21.1961C21.6101 12.7498 21.9461 12.4138 21.9461 11.9998C21.9461 11.5858 21.6101 11.2498 21.1961 11.2498H20.0381C18.7341 11.2498 18.1891 11.2418 17.7821 11.0268C17.3443 10.7959 16.9475 10.2593 16.1563 9.18934L13.8333 6.05234C13.5443 5.66196 12.8717 4.75355 11.7481 5.11679C11.2441 5.27979 10.8201 5.6398 10.4471 5.9568C10.438 5.96452 10.4289 5.97221 10.4199 5.97987C10.305 6.07739 10.1964 6.16954 10.0981 6.24279C9.81111 6.45779 9.45011 6.4138 9.20011 6.1318C8.86011 5.7488 8.86011 5.10179 9.20011 4.71879L10.6661 3.06879C11.1671 2.50479 11.5991 2.0188 12.1791 1.8588C12.7481 1.7028 13.4981 1.74778 14.1601 1.78878L14.2601 1.79479C14.7391 1.82379 15.2021 2.04181 15.5651 2.40981C16.3751 3.22681 17.3131 3.9828 18.6811 3.9828L21.1981 3.9828C21.6121 3.9828 21.9481 3.6468 21.9481 3.2328C21.9481 2.8188 21.6121 2.4828 21.1981 2.4828L18.6811 2.4828C17.9061 2.4828 17.3221 2.0508 16.6321 1.3548C16.0101 0.7248 15.2011 0.348793 14.3531 0.296793L14.2487 0.290457C13.472 0.243536 12.5912 0.190326 11.7841 0.411807C11.2869 0.548582 10.8828 0.789218 10.5284 1.07954C10.5149 1.07295 10.5011 1.06672 10.487 1.06086L9.09401 0.481859C7.80201 -0.0551406 6.35901 0.356857 5.41801 1.52986C5.04601 1.99386 4.56501 2.24985 4.06501 2.24985L1.20001 2.24985C0.786012 2.24985 0.450012 2.58585 0.450012 2.99985C0.450012 3.41385 0.786012 3.74985 1.20001 3.74985L4.06501 3.74985C5.01501 3.74985 5.93401 3.28285 6.58801 2.46885C7.10901 1.81885 7.84901 1.58884 8.51901 1.86684L9.40296 2.23426L8.08211 3.72179C7.23411 4.67579 7.23411 6.1718 8.08211 7.1268C8.85711 7.9988 10.0851 8.12979 11.0021 7.44079C11.1431 7.33479 11.2851 7.21479 11.4211 7.09879C11.6881 6.87179 11.9911 6.61479 12.2131 6.54279C12.2381 6.53479 12.2501 6.5338 12.2501 6.5338C12.2961 6.5478 12.3991 6.62979 12.6321 6.94579L14.9607 10.09C15.1268 10.3144 15.2791 10.5201 15.4217 10.7088L14.09 11.9969C12.612 13.4258 11.869 14.1429 11.092 14.2359C11.0575 14.2398 11.0231 14.2428 10.9886 14.2457L10.987 14.2458C10.2075 14.3018 9.33209 13.7376 7.58423 12.6109L7.57482 12.6049C6.59173 11.9714 6.04865 11.6214 5.40101 11.4259L5.31101 11.3989C4.66401 11.2169 4.04801 11.2168 2.82101 11.2168H1.20001C0.786012 11.2168 0.450012 11.5528 0.450012 11.9668C0.450012 12.3808 0.786012 12.7168 1.20001 12.7168H2.82101C3.905 12.7168 4.45101 12.7168 4.89901 12.8408L4.97101 12.8628C5.41305 12.9965 5.86503 13.2876 6.76807 13.869L6.77738 13.875C8.62107 15.0635 9.68545 15.7497 10.8705 15.7499C10.9444 15.7498 11.0192 15.7478 11.094 15.7408H11.111C11.1667 15.7359 11.2233 15.7308 11.274 15.7249C12.548 15.5729 13.466 14.6858 15.138 13.0698L16.3964 11.8528C16.6149 12.0578 16.8365 12.2211 17.0861 12.3528C17.8381 12.7498 18.6211 12.7498 20.0421 12.7498Z" fill="white"/>
</svg>
