<svg width="32" height="32" viewBox="0 0 32 32" fill="none" xmlns="http://www.w3.org/2000/svg">
<path d="M0 4C0 1.79086 1.79086 0 4 0H28C30.2091 0 32 1.79086 32 4V28C32 30.2091 30.2091 32 28 32H4C1.79086 32 0 30.2091 0 28V4Z" fill="#D92D20"/>
<path d="M13.9167 20.375C13.5715 20.375 13.2917 20.0952 13.2917 19.75L13.2917 14.75C13.2917 14.4048 13.5715 14.125 13.9167 14.125C14.2618 14.125 14.5417 14.4048 14.5417 14.75L14.5417 19.75C14.5417 20.0952 14.2618 20.375 13.9167 20.375Z" fill="white"/>
<path d="M18.7083 14.75C18.7083 14.4048 18.4285 14.125 18.0833 14.125C17.7382 14.125 17.4583 14.4048 17.4583 14.75V19.75C17.4583 20.0952 17.7382 20.375 18.0833 20.375C18.4285 20.375 18.7083 20.0952 18.7083 19.75V14.75Z" fill="white"/>
<path fill-rule="evenodd" clip-rule="evenodd" d="M16.0552 7.04167H16.0018C15.5807 7.04166 15.2236 7.04165 14.9272 7.06863C14.6126 7.09727 14.3196 7.15929 14.0363 7.30994C13.9245 7.36939 13.8178 7.43801 13.7173 7.51509C13.4627 7.71041 13.2848 7.95128 13.1283 8.22561C12.9808 8.48413 12.8326 8.80913 12.658 9.19228L12.3088 9.95834H8.5C8.15482 9.95834 7.875 10.2382 7.875 10.5833C7.875 10.9285 8.15482 11.2083 8.5 11.2083H9.16161L9.63194 18.9993C9.6948 20.0406 9.74469 20.867 9.84847 21.5271C9.95489 22.204 10.126 22.7678 10.4693 23.2611C10.7833 23.7123 11.1878 24.0931 11.6571 24.3794C12.1701 24.6923 12.7432 24.8291 13.4253 24.8946C14.0905 24.9584 14.9183 24.9584 15.9615 24.9584H16.0263C17.0681 24.9584 17.895 24.9584 18.5593 24.8947C19.2407 24.8294 19.8131 24.6928 20.3258 24.3805C20.7948 24.0947 21.1992 23.7145 21.5133 23.2641C21.8567 22.7717 22.0283 22.2087 22.1355 21.5327C22.2401 20.8735 22.2911 20.0483 22.3554 19.0084L22.8376 11.2083H23.5C23.8452 11.2083 24.125 10.9285 24.125 10.5833C24.125 10.2382 23.8452 9.95834 23.5 9.95834H19.7714L19.3618 9.11343C19.1826 8.74386 19.0306 8.43016 18.8809 8.18074C18.722 7.91598 18.5433 7.68396 18.2918 7.49635C18.1924 7.42221 18.0871 7.35625 17.977 7.29914C17.6985 7.15463 17.4117 7.09507 17.1042 7.06756C16.8145 7.04165 16.4658 7.04166 16.0552 7.04167ZM21.5852 11.2083H19.3935C19.3847 11.2085 19.3758 11.2085 19.3669 11.2083H12.7242C12.715 11.2085 12.7058 11.2085 12.6966 11.2083H10.4139L10.8777 18.8917C10.943 19.9725 10.9899 20.739 11.0833 21.333C11.1751 21.9169 11.3037 22.2717 11.4953 22.5471C11.7101 22.8558 11.9869 23.1164 12.308 23.3122C12.5944 23.4869 12.9563 23.5938 13.5447 23.6503C14.1432 23.7077 14.9111 23.7084 15.994 23.7084C17.0754 23.7084 17.8423 23.7077 18.44 23.6504C19.0277 23.594 19.3893 23.4873 19.6754 23.313C19.9963 23.1175 20.2731 22.8573 20.488 22.5491C20.6796 22.2742 20.8085 21.9199 20.901 21.3369C20.9951 20.7438 21.043 19.9784 21.1098 18.899L21.5852 11.2083ZM18.3822 9.95834H13.6825L13.7842 9.73529C13.973 9.32103 14.098 9.04832 14.214 8.84506C14.3241 8.65211 14.403 8.5645 14.4782 8.50686C14.5238 8.47183 14.5723 8.44064 14.6232 8.41361C14.7068 8.36916 14.8193 8.33363 15.0405 8.31349C15.2735 8.29227 15.5735 8.29167 16.0288 8.29167C16.4729 8.29167 16.7654 8.29225 16.9928 8.31259C17.2087 8.3319 17.319 8.36597 17.4014 8.4087C17.4514 8.43466 17.4992 8.46464 17.5444 8.49834C17.6188 8.55382 17.6976 8.63824 17.8091 8.82404C17.9267 9.01985 18.0547 9.28273 18.2485 9.68241L18.3822 9.95834Z" fill="white"/>
</svg>
