<svg width="44" height="44" viewBox="0 0 44 44" fill="none" xmlns="http://www.w3.org/2000/svg">
<g clip-path="url(#clip0_5143_90313)">
<path d="M22 0C9.86872 0 0 9.86872 0 22C0 34.1313 9.86872 44 22 44C34.1313 44 44 34.1313 44 22C44 9.86872 34.1313 0 22 0Z" fill="#51DA8A"/>
<path d="M22 12.9068C22.3221 12.9068 22.5922 13.0159 22.8104 13.2341C23.0287 13.4524 23.1374 13.7221 23.1367 14.0434L23.1367 26.7457L28.6779 21.2044C28.9053 20.9771 29.1754 20.8634 29.4884 20.8634C29.8013 20.8634 30.0711 20.9771 30.2977 21.2044C30.525 21.4318 30.6387 21.697 30.6387 22.0001C30.6387 22.3032 30.525 22.5684 30.2977 22.7958L22.7957 30.2978C22.682 30.4114 22.5589 30.4918 22.4263 30.5387C22.2936 30.5857 22.1516 30.6096 22 30.6104C21.8484 30.6104 21.7014 30.5865 21.559 30.5387C21.4165 30.491 21.2983 30.4107 21.2043 30.2978L13.7023 22.7958C13.475 22.5684 13.3613 22.3032 13.3613 22.0001C13.3613 21.697 13.475 21.4318 13.7023 21.2044C13.9297 20.9771 14.1998 20.8634 14.5128 20.8634C14.8257 20.8634 15.0955 20.9771 15.3221 21.2044L20.8633 26.7457L20.8633 14.0434C20.8633 13.7214 20.9725 13.4512 21.1907 13.233C21.4089 13.0148 21.6787 12.906 22 12.9068Z" fill="white"/>
</g>
<defs>
<clipPath id="clip0_5143_90313">
<rect width="44" height="44" fill="white"/>
</clipPath>
</defs>
</svg>
