<svg width="20" height="20" viewBox="0 0 20 20" fill="none" xmlns="http://www.w3.org/2000/svg">
<path d="M10.6251 3.33337C10.6251 2.9882 10.3453 2.70837 10.0001 2.70837C9.65496 2.70837 9.37514 2.9882 9.37514 3.33337V10.385L9.37009 10.379C9.19452 10.1718 9.02261 9.95285 8.86185 9.74808L8.82459 9.70062C8.6644 9.49668 8.49587 9.28241 8.36498 9.14776C8.1244 8.90024 7.72871 8.89461 7.48119 9.1352C7.23367 9.37578 7.22805 9.77147 7.46863 10.019C7.54255 10.095 7.6639 10.2466 7.84156 10.4727L7.88076 10.5227C8.03915 10.7244 8.22498 10.9612 8.41642 11.1871C8.62159 11.4292 8.85124 11.6807 9.0808 11.8763C9.19584 11.9742 9.3255 12.0709 9.46499 12.1455C9.59953 12.2175 9.7849 12.2917 10.0001 12.2917C10.2154 12.2917 10.4008 12.2175 10.5353 12.1455C10.6748 12.0709 10.8044 11.9742 10.9195 11.8763C11.149 11.6807 11.3787 11.4292 11.5839 11.1871C11.7753 10.9612 11.9611 10.7245 12.1195 10.5227L12.1587 10.4727C12.3364 10.2466 12.4577 10.095 12.5317 10.019C12.7722 9.77147 12.7666 9.37578 12.5191 9.1352C12.2716 8.89461 11.8759 8.90023 11.6353 9.14776C11.5044 9.28241 11.3359 9.49667 11.1757 9.70062L11.1384 9.74809C10.9777 9.95285 10.8057 10.1718 10.6302 10.379L10.6251 10.385V3.33337Z" fill="#161616"/>
<path d="M18.0895 11.8747C18.2044 11.5492 18.0336 11.1922 17.7081 11.0774C17.3826 10.9625 17.0256 11.1332 16.9107 11.4587L16.7159 12.0108C16.3319 13.0987 16.0603 13.8654 15.7815 14.4402C15.5096 15.0006 15.2568 15.3211 14.9413 15.5443C14.6258 15.7675 14.2394 15.8993 13.6204 15.9691C12.9857 16.0408 12.1723 16.0417 11.0186 16.0417H8.98158C7.82793 16.0417 7.01454 16.0408 6.37978 15.9691C5.7608 15.8993 5.37441 15.7675 5.05894 15.5443C4.74347 15.3211 4.49063 15.0006 4.21872 14.4402C3.93989 13.8654 3.66831 13.0987 3.28435 12.0108L3.08948 11.4587C2.9746 11.1332 2.6176 10.9625 2.2921 11.0774C1.9666 11.1922 1.79586 11.5492 1.91074 11.8747L2.11806 12.4622C2.48672 13.5067 2.7809 14.3402 3.09409 14.9858C3.41775 15.6529 3.78716 16.1757 4.33697 16.5647C4.88679 16.9537 5.50277 17.1281 6.23956 17.2113C6.95255 17.2917 7.83646 17.2917 8.94416 17.2917H11.0561C12.1638 17.2917 13.0477 17.2917 13.7607 17.2113C14.4975 17.1281 15.1134 16.9537 15.6632 16.5647C16.2131 16.1757 16.5825 15.6529 16.9061 14.9858C17.2193 14.3402 17.5135 13.5067 17.8822 12.4621L18.0895 11.8747Z" fill="#161616"/>
</svg>
