<svg width="16" height="16" viewBox="0 0 16 16" fill="none" xmlns="http://www.w3.org/2000/svg">
<path d="M8 1.5H7.96204C6.58001 1.49999 5.49179 1.49998 4.64156 1.61429C3.76918 1.73158 3.07285 1.9774 2.52513 2.52513C1.9774 3.07285 1.73158 3.76918 1.61429 4.64156C1.49998 5.49179 1.49999 6.58001 1.5 7.96204V8.03797C1.49999 9.41999 1.49998 10.5082 1.61429 11.3584C1.73158 12.2308 1.9774 12.9271 2.52513 13.4749C3.07285 14.0226 3.76918 14.2684 4.64156 14.3857C5.49179 14.5 6.58001 14.5 7.96204 14.5H8.03796C9.41999 14.5 10.5082 14.5 11.3584 14.3857C12.2308 14.2684 12.9271 14.0226 13.4749 13.4749C14.0226 12.9271 14.2684 12.2308 14.3857 11.3584C14.5 10.5082 14.5 9.41999 14.5 8.03796V8C14.5 7.72386 14.2761 7.5 14 7.5C13.7239 7.5 13.5 7.72386 13.5 8C13.5 9.42835 13.4989 10.4493 13.3946 11.2252C13.2922 11.9867 13.0987 12.4368 12.7678 12.7678C12.4368 13.0987 11.9867 13.2922 11.2252 13.3946C10.4493 13.4989 9.42835 13.5 8 13.5C6.57165 13.5 5.55069 13.4989 4.77481 13.3946C4.01331 13.2922 3.56319 13.0987 3.23223 12.7678C2.90128 12.4368 2.70776 11.9867 2.60538 11.2252C2.50106 10.4493 2.5 9.42835 2.5 8C2.5 6.57165 2.50106 5.55069 2.60538 4.77481C2.70776 4.01331 2.90128 3.56319 3.23223 3.23223C3.56319 2.90128 4.01331 2.70776 4.77481 2.60538C5.55069 2.50106 6.57165 2.5 8 2.5C8.27614 2.5 8.5 2.27614 8.5 2C8.5 1.72386 8.27614 1.5 8 1.5Z" fill="#161616"/>
<path fill-rule="evenodd" clip-rule="evenodd" d="M13.9665 2.03353C13.2551 1.32216 12.1017 1.32216 11.3904 2.03353L6.91297 6.51091C6.26723 7.15649 5.87256 7.55107 5.60111 8.03684C5.4497 8.3078 5.31743 8.71879 5.2004 9.13936C5.08 9.57201 4.96147 10.0698 4.84833 10.545L4.84694 10.5509C4.80672 10.7198 4.85702 10.8974 4.97979 11.0202C5.10257 11.143 5.28025 11.1933 5.44915 11.1531L5.45495 11.1517C5.93016 11.0385 6.42799 10.92 6.86065 10.7996C7.28122 10.6826 7.69221 10.5503 7.96317 10.3989C8.44895 10.1274 8.84351 9.73279 9.4891 9.08704L13.9665 4.60965C14.6779 3.89828 14.6779 2.74491 13.9665 2.03353ZM12.0975 2.74064C12.4183 2.41979 12.9385 2.41979 13.2594 2.74064C13.5802 3.06149 13.5802 3.5817 13.2594 3.90255L12.6784 4.4835L11.5165 3.32159L12.0975 2.74064ZM10.8094 4.0287L11.9713 5.19061L8.83562 8.3263C8.11955 9.04237 7.82548 9.3303 7.47537 9.52594C7.32173 9.6118 7.01912 9.71752 6.59256 9.83622C6.41029 9.88694 6.21478 9.93759 6.01178 9.98823C6.06242 9.78523 6.11307 9.58973 6.16379 9.40745C6.28249 8.98089 6.38821 8.67828 6.47407 8.52464C6.66971 8.17453 6.95765 7.88046 7.67371 7.16439L10.8094 4.0287Z" fill="#161616"/>
<path d="M8 1.5H7.96204C6.58001 1.49999 5.49179 1.49998 4.64156 1.61429C3.76918 1.73158 3.07285 1.9774 2.52513 2.52513C1.9774 3.07285 1.73158 3.76918 1.61429 4.64156C1.49998 5.49179 1.49999 6.58001 1.5 7.96204V8.03797C1.49999 9.41999 1.49998 10.5082 1.61429 11.3584C1.73158 12.2308 1.9774 12.9271 2.52513 13.4749C3.07285 14.0226 3.76918 14.2684 4.64156 14.3857C5.49179 14.5 6.58001 14.5 7.96204 14.5H8.03796C9.41999 14.5 10.5082 14.5 11.3584 14.3857C12.2308 14.2684 12.9271 14.0226 13.4749 13.4749C14.0226 12.9271 14.2684 12.2308 14.3857 11.3584C14.5 10.5082 14.5 9.41999 14.5 8.03796V8C14.5 7.72386 14.2761 7.5 14 7.5C13.7239 7.5 13.5 7.72386 13.5 8C13.5 9.42835 13.4989 10.4493 13.3946 11.2252C13.2922 11.9867 13.0987 12.4368 12.7678 12.7678C12.4368 13.0987 11.9867 13.2922 11.2252 13.3946C10.4493 13.4989 9.42835 13.5 8 13.5C6.57165 13.5 5.55069 13.4989 4.77481 13.3946C4.01331 13.2922 3.56319 13.0987 3.23223 12.7678C2.90128 12.4368 2.70776 11.9867 2.60538 11.2252C2.50106 10.4493 2.5 9.42835 2.5 8C2.5 6.57165 2.50106 5.55069 2.60538 4.77481C2.70776 4.01331 2.90128 3.56319 3.23223 3.23223C3.56319 2.90128 4.01331 2.70776 4.77481 2.60538C5.55069 2.50106 6.57165 2.5 8 2.5C8.27614 2.5 8.5 2.27614 8.5 2C8.5 1.72386 8.27614 1.5 8 1.5Z" stroke="#161616"/>
<path fill-rule="evenodd" clip-rule="evenodd" d="M13.9665 2.03353C13.2551 1.32216 12.1017 1.32216 11.3904 2.03353L6.91297 6.51091C6.26723 7.15649 5.87256 7.55107 5.60111 8.03684C5.4497 8.3078 5.31743 8.71879 5.2004 9.13936C5.08 9.57201 4.96147 10.0698 4.84833 10.545L4.84694 10.5509C4.80672 10.7198 4.85702 10.8974 4.97979 11.0202C5.10257 11.143 5.28025 11.1933 5.44915 11.1531L5.45495 11.1517C5.93016 11.0385 6.42799 10.92 6.86065 10.7996C7.28122 10.6826 7.69221 10.5503 7.96317 10.3989C8.44895 10.1274 8.84351 9.73279 9.4891 9.08704L13.9665 4.60965C14.6779 3.89828 14.6779 2.74491 13.9665 2.03353ZM12.0975 2.74064C12.4183 2.41979 12.9385 2.41979 13.2594 2.74064C13.5802 3.06149 13.5802 3.5817 13.2594 3.90255L12.6784 4.4835L11.5165 3.32159L12.0975 2.74064ZM10.8094 4.0287L11.9713 5.19061L8.83562 8.3263C8.11955 9.04237 7.82548 9.3303 7.47537 9.52594C7.32173 9.6118 7.01912 9.71752 6.59256 9.83622C6.41029 9.88694 6.21478 9.93759 6.01178 9.98823C6.06242 9.78523 6.11307 9.58973 6.16379 9.40745C6.28249 8.98089 6.38821 8.67828 6.47407 8.52464C6.66971 8.17453 6.95765 7.88046 7.67371 7.16439L10.8094 4.0287Z" stroke="#161616"/>
</svg>
