<svg width="32" height="32" viewBox="0 0 32 32" fill="none" xmlns="http://www.w3.org/2000/svg">
<path d="M0.5 4C0.5 2.067 2.067 0.5 4 0.5H28C29.933 0.5 31.5 2.067 31.5 4V28C31.5 29.933 29.933 31.5 28 31.5H4C2.067 31.5 0.5 29.933 0.5 28V4Z" stroke="#D2D6DB"/>
<path fill-rule="evenodd" clip-rule="evenodd" d="M18.6703 7.49527C19.6574 6.90817 20.8749 6.88977 21.8789 7.44717C22.2954 7.67839 22.6753 8.06671 23.2402 8.64423L23.3936 8.80095C23.9606 9.37973 24.34 9.7671 24.5653 10.1906C25.1058 11.2065 25.0882 12.4355 24.5185 13.4351C24.281 13.8517 23.8905 14.2276 23.3073 14.789L15.2917 22.5093C14.141 23.618 13.4318 24.3014 12.5343 24.652C11.6356 25.003 10.6584 24.9772 9.07738 24.9356L8.67158 24.925C8.43987 24.919 8.20564 24.9129 8.01225 24.8807C7.79014 24.8436 7.52633 24.7584 7.31763 24.5216C7.11079 24.2868 7.05771 24.0159 7.04529 23.7931C7.03431 23.596 7.05275 23.36 7.07129 23.1228L7.10539 22.685C7.21312 21.2995 7.27898 20.4526 7.61342 19.6828C7.94829 18.912 8.52037 18.2924 9.45375 17.2814L17.3441 8.73259C17.8923 8.13825 18.2608 7.73881 18.6703 7.49527ZM21.2722 8.54004C20.6574 8.19872 19.9143 8.20977 19.3092 8.56962C19.0773 8.70758 18.8393 8.95564 18.1876 9.66178L18.1196 9.73542L22.3549 13.9707L22.3619 13.964C23.0524 13.299 23.2962 13.0552 23.4325 12.8161C23.7898 12.1892 23.801 11.4154 23.4618 10.7777C23.3323 10.5344 23.0955 10.2833 22.4245 9.59785C21.7526 8.91153 21.5078 8.67087 21.2722 8.54004ZM10.4507 18.0443L17.2711 10.6547L21.4545 14.838L14.5255 21.5118C13.2401 22.7499 12.7161 23.239 12.0796 23.4876C11.4445 23.7357 10.7375 23.7286 8.97104 23.6824L8.73772 23.6763C8.60479 23.6728 8.4995 23.67 8.40909 23.6653C8.36224 23.6628 8.32373 23.66 8.2918 23.657C8.29213 23.5567 8.30231 23.4151 8.32008 23.187L8.34257 22.8983C8.46246 21.3595 8.51902 20.7353 8.75989 20.1809C9.0003 19.6276 9.41395 19.1676 10.4507 18.0443Z" fill="#161616"/>
<path d="M17.667 23.7083C17.3218 23.7083 17.042 23.9882 17.042 24.3333C17.042 24.6785 17.3218 24.9583 17.667 24.9583H24.3337C24.6788 24.9583 24.9587 24.6785 24.9587 24.3333C24.9587 23.9882 24.6788 23.7083 24.3337 23.7083H17.667Z" fill="#161616"/>
</svg>
