<svg width="32" height="32" viewBox="0 0 32 32" fill="none" xmlns="http://www.w3.org/2000/svg">
<path d="M0 4C0 1.79086 1.79086 0 4 0H28C30.2091 0 32 1.79086 32 4V28C32 30.2091 30.2091 32 28 32H4C1.79086 32 0 30.2091 0 28V4Z" fill="#079455"/>
<path d="M12 12C12 11.6318 12.2984 11.3333 12.6666 11.3333H12.6726C13.0408 11.3333 13.3393 11.6318 13.3393 12C13.3393 12.3682 13.0408 12.6667 12.6726 12.6667H12.6666C12.2984 12.6667 12 12.3682 12 12Z" fill="white"/>
<path d="M15.3333 11.3333C14.9651 11.3333 14.6666 11.6318 14.6666 12C14.6666 12.3682 14.9651 12.6667 15.3333 12.6667H15.3393C15.7075 12.6667 16.0059 12.3682 16.0059 12C16.0059 11.6318 15.7075 11.3333 15.3393 11.3333H15.3333Z" fill="white"/>
<path fill-rule="evenodd" clip-rule="evenodd" d="M16.0381 9.16667H15.9618C14.5014 9.16666 13.3543 9.16666 12.4586 9.28707C11.5409 9.41046 10.8127 9.66848 10.2406 10.2406C9.66844 10.8127 9.41041 11.5409 9.28702 12.4587C9.16661 13.3543 9.16662 14.5014 9.16663 15.9619V16.0381C9.16662 17.4986 9.16661 18.6457 9.28702 19.5413C9.41041 20.4591 9.66844 21.1873 10.2406 21.7594C10.8127 22.3315 11.5409 22.5896 12.4586 22.7129C13.3542 22.8334 14.5014 22.8333 15.9618 22.8333H16.0381C17.4985 22.8333 18.6457 22.8334 19.5413 22.7129C20.459 22.5896 21.1872 22.3315 21.7594 21.7594C22.3315 21.1873 22.5895 20.4591 22.7129 19.5413C22.8333 18.6457 22.8333 17.4986 22.8333 16.0381V15.9619C22.8333 14.5014 22.8333 13.3543 22.7129 12.4587C22.5895 11.5409 22.3315 10.8127 21.7594 10.2406C21.1872 9.66848 20.459 9.41046 19.5413 9.28707C18.6457 9.16666 17.4985 9.16666 16.0381 9.16667ZM10.9477 10.9477C11.303 10.5924 11.785 10.3866 12.5919 10.2782C13.4132 10.1677 14.493 10.1667 16 10.1667C17.5069 10.1667 18.5868 10.1677 19.408 10.2782C20.2149 10.3866 20.6969 10.5924 21.0522 10.9477C21.4076 11.3031 21.6133 11.7851 21.7218 12.5919C21.7584 12.8642 21.783 13.1648 21.7995 13.5H10.2004C10.2169 13.1648 10.2415 12.8642 10.2781 12.5919C10.3866 11.7851 10.5923 11.3031 10.9477 10.9477ZM10.1725 14.5C10.1668 14.9477 10.1666 15.4449 10.1666 16C10.1666 17.5069 10.1677 18.5868 10.2781 19.4081C10.3866 20.215 10.5923 20.6969 10.9477 21.0523C11.303 21.4077 11.785 21.6134 12.5919 21.7219C13.4132 21.8323 14.493 21.8333 16 21.8333C17.5069 21.8333 18.5868 21.8323 19.408 21.7219C20.2149 21.6134 20.6969 21.4077 21.0522 21.0523C21.4076 20.6969 21.6133 20.215 21.7218 19.4081C21.8322 18.5868 21.8333 17.5069 21.8333 16C21.8333 15.4449 21.8331 14.9477 21.8274 14.5H10.1725Z" fill="white"/>
</svg>
