<svg width="44" height="44" viewBox="0 0 44 44" fill="none" xmlns="http://www.w3.org/2000/svg">
<path d="M0 22C0 9.84974 9.84974 0 22 0C34.1503 0 44 9.84974 44 22C44 34.1503 34.1503 44 22 44C9.84974 44 0 34.1503 0 22Z" fill="#0D121C"/>
<path d="M22.75 14C22.75 13.5858 22.4142 13.25 22 13.25C21.5858 13.25 21.25 13.5858 21.25 14V21.25H14C13.5858 21.25 13.25 21.5858 13.25 22C13.25 22.4142 13.5858 22.75 14 22.75H21.25V30C21.25 30.4142 21.5858 30.75 22 30.75C22.4142 30.75 22.75 30.4142 22.75 30V22.75H30C30.4142 22.75 30.75 22.4142 30.75 22C30.75 21.5858 30.4142 21.25 30 21.25H22.75V14Z" fill="white"/>
</svg>
