<svg width="32" height="32" viewBox="0 0 32 32" fill="none" xmlns="http://www.w3.org/2000/svg">
<path d="M0 4C0 1.79086 1.79086 0 4 0H28C30.2091 0 32 1.79086 32 4V28C32 30.2091 30.2091 32 28 32H4C1.79086 32 0 30.2091 0 28V4Z" fill="#079455"/>
<path d="M16.8334 9.83333H17.6667C17.9429 9.83333 18.1667 9.60947 18.1667 9.33333C18.1667 9.05719 17.9429 8.83333 17.6667 8.83333H15C14.7239 8.83333 14.5 9.05719 14.5 9.33333C14.5 9.60947 14.7239 9.83333 15 9.83333H15.8334V10.2195C14.703 10.3638 13.6589 10.7976 12.7814 11.4443C12.7579 11.397 12.7264 11.3526 12.6869 11.3131L12.0203 10.6464C11.825 10.4512 11.5084 10.4512 11.3132 10.6464C11.1179 10.8417 11.1179 11.1583 11.3132 11.3535L11.9798 12.0202C12.0004 12.0408 12.0223 12.0592 12.0452 12.0754C11.0236 13.0907 10.3361 14.4398 10.1697 15.9451C10.1394 16.2195 10.3373 16.4666 10.6118 16.497C10.8862 16.5273 11.1333 16.3294 11.1637 16.0549C11.4672 13.3093 13.8322 11.1667 16.6667 11.1667C19.7043 11.1667 22.1667 13.6291 22.1667 16.6667C22.1667 19.7042 19.7043 22.1667 16.6667 22.1667H9.33337C9.05723 22.1667 8.83337 22.3905 8.83337 22.6667C8.83337 22.9428 9.05723 23.1667 9.33337 23.1667H16.6667C20.2566 23.1667 23.1667 20.2565 23.1667 16.6667C23.1667 14.7124 22.3042 12.9595 20.9392 11.768L21.3536 11.3535C21.5489 11.1583 21.5489 10.8417 21.3536 10.6464C21.1583 10.4512 20.8417 10.4512 20.6465 10.6464L20.1286 11.1643C19.1702 10.56 18.0428 10.1992 16.8334 10.1688V9.83333Z" fill="white"/>
<path fill-rule="evenodd" clip-rule="evenodd" d="M19.3537 14.3536C19.5489 14.1583 19.5489 13.8417 19.3537 13.6465C19.1584 13.4512 18.8418 13.4512 18.6466 13.6465L16.9801 15.313C16.7842 15.2193 16.5648 15.1667 16.3335 15.1667C15.505 15.1667 14.8335 15.8383 14.8335 16.6667C14.8335 17.4951 15.505 18.1667 16.3335 18.1667C17.1619 18.1667 17.8335 17.4951 17.8335 16.6667C17.8335 16.4353 17.7809 16.2159 17.6872 16.0201L19.3537 14.3536ZM15.8335 16.6667C15.8335 16.3905 16.0573 16.1667 16.3335 16.1667C16.4717 16.1667 16.596 16.2221 16.687 16.3131C16.778 16.4042 16.8335 16.5285 16.8335 16.6667C16.8335 16.9428 16.6096 17.1667 16.3335 17.1667C16.0573 17.1667 15.8335 16.9428 15.8335 16.6667Z" fill="white"/>
<path d="M8.83337 18C8.83337 17.7239 9.05723 17.5 9.33337 17.5H11.3334C11.6095 17.5 11.8334 17.7239 11.8334 18C11.8334 18.2761 11.6095 18.5 11.3334 18.5H9.33337C9.05723 18.5 8.83337 18.2761 8.83337 18Z" fill="white"/>
<path d="M9.33337 20.1667C9.05723 20.1667 8.83337 20.3905 8.83337 20.6667C8.83337 20.9428 9.05723 21.1667 9.33337 21.1667H12.6667C12.9429 21.1667 13.1667 20.9428 13.1667 20.6667C13.1667 20.3905 12.9429 20.1667 12.6667 20.1667H9.33337Z" fill="white"/>
</svg>
