<svg width="20" height="20" viewBox="0 0 20 20" fill="none" xmlns="http://www.w3.org/2000/svg">
<path fill-rule="evenodd" clip-rule="evenodd" d="M5.15178 1.875C5.16622 1.875 5.18071 1.875 5.19526 1.875L14.8482 1.875C15.4903 1.87497 16.0355 1.87495 16.4656 1.93359C16.9208 1.99565 17.3561 2.13576 17.6893 2.50258C18.0255 2.87261 18.1175 3.31855 18.1245 3.77439C18.1311 4.20011 18.0631 4.72894 17.9837 5.34551L17.9779 5.39041C17.9499 5.6086 17.9078 5.81964 17.82 6.03092C17.7309 6.24544 17.6082 6.42814 17.4553 6.60971C16.6389 7.57961 15.1212 9.33242 12.9845 10.9287C12.95 10.9545 12.9063 11.0157 12.898 11.1075C12.6904 13.4016 12.5078 14.6154 12.3761 15.3186C12.2336 16.079 11.6536 16.6053 11.1535 16.9677C10.8917 17.1573 10.6139 17.3281 10.3665 17.4787C10.3467 17.4907 10.3271 17.5027 10.3077 17.5144C10.0766 17.655 9.88009 17.7745 9.71584 17.8906C9.26541 18.2091 8.74576 18.1868 8.34856 17.9554C7.97373 17.737 7.70997 17.3388 7.65664 16.8883C7.53958 15.8996 7.32738 13.9641 7.09313 11.1022C7.08562 11.0104 7.07128 10.9837 7.07008 10.9815C7.06926 10.98 7.06715 10.9761 7.06015 10.9684C7.05233 10.9598 7.03669 10.9445 7.00696 10.9223C4.8746 9.32806 3.35985 7.57834 2.54459 6.60968C2.39234 6.42878 2.26601 6.25043 2.17594 6.03352C2.08776 5.82118 2.05016 5.60907 2.02203 5.39041C2.0201 5.37539 2.01817 5.36042 2.01625 5.3455C1.93691 4.72893 1.86885 4.20011 1.87544 3.77439C1.8825 3.31855 1.97452 2.87261 2.31067 2.50258C2.6439 2.13576 3.07919 1.99565 3.53442 1.93359C3.96451 1.87495 4.50964 1.87497 5.15178 1.875ZM3.70328 3.17213C3.3832 3.21577 3.28678 3.28708 3.23589 3.34309C3.18793 3.39589 3.13001 3.48888 3.12529 3.79374C3.12027 4.11844 3.1751 4.55676 3.26182 5.23093C3.28592 5.41827 3.30703 5.49795 3.33036 5.55414C3.35179 5.60576 3.38978 5.67268 3.50095 5.80477C4.29952 6.75359 5.74039 8.41463 7.75545 9.92118C7.91734 10.0422 8.06587 10.1921 8.17333 10.3938C8.2792 10.5926 8.32254 10.7995 8.33897 11.0002C8.57194 13.8465 8.78261 15.767 8.89797 16.7414C8.90148 16.7711 8.9123 16.8004 8.92895 16.8259C8.94598 16.852 8.96491 16.8678 8.97778 16.8753C8.97942 16.8762 8.98086 16.877 8.9821 16.8776C8.98506 16.876 8.98906 16.8736 8.99415 16.87C9.19591 16.7273 9.43009 16.585 9.65111 16.4507C9.67311 16.4374 9.69499 16.4241 9.71668 16.4109C9.96569 16.2593 10.2038 16.1121 10.42 15.9555C10.8757 15.6253 11.0992 15.3459 11.1474 15.0884C11.2695 14.4369 11.4477 13.2651 11.6531 10.9948C11.6908 10.5789 11.895 10.1823 12.2364 9.92726C14.2556 8.41878 15.6994 6.75476 16.499 5.80475C16.596 5.68954 16.6391 5.61525 16.6657 5.55134C16.6936 5.48419 16.717 5.39533 16.7382 5.23093C16.8249 4.55676 16.8797 4.11844 16.8747 3.79374C16.87 3.48888 16.812 3.3959 16.7641 3.34309C16.7132 3.28708 16.6168 3.21577 16.2967 3.17213C15.9611 3.12638 15.5023 3.125 14.8047 3.125H5.19526C4.49772 3.125 4.03884 3.12638 3.70328 3.17213ZM8.97554 16.8805C8.97558 16.8805 8.97599 16.8803 8.97676 16.8801L8.97554 16.8805Z" fill="#161616"/>
</svg>
