<svg width="21" height="20" viewBox="0 0 21 20" fill="none" xmlns="http://www.w3.org/2000/svg">
<path d="M10.6 13C10.0478 13 9.60004 13.4477 9.60004 14C9.60004 14.5523 10.0478 15 10.6 15H10.609C11.1613 15 11.609 14.5523 11.609 14C11.609 13.4477 11.1613 13 10.609 13H10.6Z" fill="white" fill-opacity="0.5"/>
<path fill-rule="evenodd" clip-rule="evenodd" d="M10.6 0.25C9.97126 0.25 9.43895 0.483066 8.91593 0.833529C8.42128 1.16499 7.86895 1.64833 7.20473 2.22959L1.34525 7.35692C0.835769 7.80273 0.738656 8.45954 0.966958 8.98874C1.19155 9.50934 1.71599 9.88428 2.36241 9.88428C2.36649 9.88428 2.3701 9.88456 2.37326 9.88499L2.37326 13.1392C2.37324 14.4846 2.37322 15.5762 2.4984 16.4362C2.62949 17.3368 2.91099 18.0912 3.55291 18.6841C4.18635 19.2691 4.97801 19.5185 5.92347 19.6359C6.84232 19.75 8.01357 19.75 9.48032 19.75H11.7197C13.1864 19.75 14.3577 19.75 15.2766 19.6359C16.222 19.5185 17.0137 19.2691 17.6472 18.6841C18.2891 18.0912 18.5706 17.3368 18.7017 16.4362C18.8268 15.5762 18.8268 14.4846 18.8268 13.1392V9.88499C18.8289 9.88471 18.8311 9.88449 18.8336 9.88438C18.8349 9.88432 18.8362 9.88428 18.8376 9.88428C19.4841 9.88428 20.0085 9.50934 20.2331 8.98874C20.4614 8.45953 20.3643 7.80273 19.8548 7.35692L13.9953 2.2296C13.3311 1.64834 12.7788 1.16499 12.2841 0.833529C11.7611 0.483065 11.2288 0.25 10.6 0.25ZM8.15558 3.39075C8.86626 2.76887 9.34621 2.35083 9.75093 2.07964C10.1364 1.82132 10.3776 1.75 10.6 1.75C10.8225 1.75 11.0636 1.82132 11.4491 2.07964C11.8539 2.35083 12.3338 2.76887 13.0445 3.39075L18.7537 8.38659C18.0084 8.4276 17.3268 9.01068 17.3268 9.83705V13.0806C17.3268 14.4987 17.3249 15.4807 17.2173 16.2202C17.1138 16.9315 16.926 17.3082 16.6294 17.5822C16.3243 17.864 15.8914 18.048 15.0917 18.1474C14.2762 18.2486 13.1983 18.25 11.6681 18.25H9.53192C8.00176 18.25 6.9239 18.2486 6.10833 18.1474C5.30862 18.048 4.87576 17.864 4.57068 17.5822C4.27406 17.3082 4.08631 16.9315 3.98276 16.2202C3.87513 15.4807 3.87327 14.4987 3.87327 13.0806V9.83705C3.87327 9.01068 3.19164 8.4276 2.44635 8.38659L8.15558 3.39075Z" fill="white" fill-opacity="0.5"/>
</svg>
