<svg width="20" height="20" viewBox="0 0 20 20" fill="none" xmlns="http://www.w3.org/2000/svg">
<path fill-rule="evenodd" clip-rule="evenodd" d="M4.99992 1.04166C5.3451 1.04166 5.62492 1.32149 5.62492 1.66666V1.97158C6.57164 1.87497 7.73661 1.87498 9.15762 1.875H10.8422C12.2632 1.87498 13.4282 1.87497 14.3749 1.97158V1.66666C14.3749 1.32149 14.6547 1.04166 14.9999 1.04166C15.3451 1.04166 15.6249 1.32149 15.6249 1.66666V2.19565C16.2956 2.38573 16.8612 2.69466 17.332 3.20363C17.9802 3.90445 18.2684 4.78993 18.4064 5.89959C18.5416 6.98692 18.5416 8.3804 18.5416 10.1584V10.6749C18.5416 12.4529 18.5416 13.8464 18.4064 14.9337C18.2684 16.0434 17.9802 16.9289 17.332 17.6297C16.6773 18.3374 15.8393 18.6584 14.7905 18.8108C13.7755 18.9584 12.4786 18.9583 10.8422 18.9583H9.15762C7.52121 18.9583 6.22435 18.9584 5.20932 18.8108C4.16056 18.6584 3.32254 18.3374 2.66787 17.6297C2.01961 16.9289 1.73146 16.0434 1.59346 14.9337C1.45824 13.8464 1.45824 12.4529 1.45825 10.675V10.1584C1.45824 8.38039 1.45824 6.98692 1.59346 5.89959C1.73146 4.78993 2.01961 3.90445 2.66787 3.20363C3.13867 2.69466 3.70429 2.38573 4.37492 2.19565V1.66666C4.37492 1.32149 4.65474 1.04166 4.99992 1.04166ZM4.99992 3.95833C4.71423 3.95833 4.47331 3.76664 4.39875 3.50487C4.05933 3.63992 3.80161 3.8188 3.5855 4.05243C3.19195 4.47789 2.95869 5.06113 2.83543 6.04166H17.1644C17.0411 5.06113 16.8079 4.47789 16.4143 4.05243C16.1982 3.8188 15.9405 3.63993 15.6011 3.50487C15.5265 3.76665 15.2856 3.95833 14.9999 3.95833C14.6547 3.95833 14.3749 3.67851 14.3749 3.33333V3.22882C13.4907 3.1263 12.3479 3.125 10.7916 3.125H9.20825C7.6519 3.125 6.50909 3.1263 5.62492 3.22882V3.33333C5.62492 3.67851 5.3451 3.95833 4.99992 3.95833ZM17.2591 7.29166H2.74069C2.70871 8.08907 2.70825 9.04233 2.70825 10.2027V10.6306C2.70825 12.4625 2.70939 13.7783 2.8339 14.7795C2.95676 15.7674 3.19032 16.3537 3.5855 16.7809C3.97426 17.2012 4.49765 17.4443 5.38912 17.5738C6.30388 17.7068 7.50982 17.7083 9.20825 17.7083H10.7916C12.49 17.7083 13.696 17.7068 14.6107 17.5738C15.5022 17.4443 16.0256 17.2012 16.4143 16.7809C16.8095 16.3537 17.0431 15.7674 17.1659 14.7795C17.2904 13.7783 17.2916 12.4625 17.2916 10.6306V10.2027C17.2916 9.04233 17.2911 8.08907 17.2591 7.29166Z" fill="#161616"/>
</svg>
