<svg width="21" height="24" viewBox="0 0 21 24" fill="none" xmlns="http://www.w3.org/2000/svg">
<path fill-rule="evenodd" clip-rule="evenodd" d="M13.3129 0.338459C13.6781 0.143071 14.1326 0.28076 14.328 0.645995L14.9459 1.80107C15.1309 2.14675 15.2985 2.46007 15.3983 2.70738C15.4498 2.83523 15.5071 3.00103 15.5236 3.17946C15.5412 3.36985 15.5171 3.64656 15.3156 3.89053C15.1054 4.14501 14.8248 4.21329 14.6425 4.22914C14.4657 4.24451 14.2905 4.22002 14.1499 4.19323C13.8756 4.14096 13.5154 4.03401 13.109 3.91331L13.0697 3.90164C12.2581 3.66071 11.3955 3.53073 10.5 3.53073C5.64613 3.53073 1.75 7.34351 1.75 11.9998C1.75 13.5391 2.17364 14.9813 2.91516 16.2253C3.12725 16.5811 3.01075 17.0414 2.65495 17.2535C2.29916 17.4656 1.83879 17.3491 1.6267 16.9933C0.751604 15.5253 0.25 13.8188 0.25 11.9998C0.25 6.47296 4.86046 2.03073 10.5 2.03073C11.5413 2.03073 12.5477 2.18196 13.4966 2.46367C13.5387 2.47617 13.5793 2.48823 13.6186 2.49986C13.6135 2.49044 13.6085 2.48093 13.6033 2.47133L13.0054 1.35356C12.81 0.98832 12.9477 0.533846 13.3129 0.338459ZM18.345 6.74603C18.7008 6.53394 19.1612 6.65043 19.3733 7.00623C20.2484 8.47428 20.75 10.1807 20.75 11.9998C20.75 17.5266 16.1395 21.9688 10.5 21.9688C9.45873 21.9688 8.45232 21.8176 7.50343 21.5359C7.46132 21.5234 7.42067 21.5113 7.38141 21.4997C7.38645 21.5091 7.39154 21.5186 7.39668 21.5282L7.99465 22.646C8.19004 23.0112 8.05235 23.4657 7.68712 23.6611C7.32188 23.8565 6.86741 23.7188 6.67202 23.3536L6.05409 22.1985C5.86911 21.8528 5.70146 21.5395 5.6017 21.2922C5.55014 21.1643 5.49292 20.9985 5.47642 20.8201C5.45881 20.6297 5.48283 20.353 5.68435 20.109C5.89455 19.8545 6.1752 19.7863 6.35745 19.7704C6.53429 19.755 6.70945 19.7795 6.85009 19.8063C7.12446 19.8586 7.48463 19.9656 7.89113 20.0863L7.93035 20.0979C8.74185 20.3388 9.60451 20.4688 10.5 20.4688C15.3539 20.4688 19.25 16.656 19.25 11.9998C19.25 10.4605 18.8264 9.01822 18.0848 7.77427C17.8728 7.41848 17.9893 6.95812 18.345 6.74603Z" fill="white"/>
</svg>
