<svg width="24" height="24" viewBox="0 0 24 24" fill="none" xmlns="http://www.w3.org/2000/svg">
<path opacity="0.4" d="M3.19043 10.5H4.33658C4.99855 10.8164 5.73007 10.9965 6.43573 10.9965C6.7916 11.0203 7.54031 10.9293 8.33967 10.5H10.244C10.8208 10.8164 11.4841 10.9965 12.1897 10.9965C13.0385 10.9965 13.7144 10.7712 14.2056 10.5H15.9994C16.5762 10.8164 17.2394 10.9965 17.9451 10.9965C18.6508 10.9965 19.3823 10.8164 20.0442 10.5H21.1904V14.5308C20.5551 13.8947 19.6697 13.5 18.6904 13.5C16.7574 13.5 15.1904 15.0376 15.1904 16.9343C15.1904 18.36 16.1504 19.3527 17.0927 20.3272C17.4447 20.6912 17.7942 21.0527 18.0904 21.4332C17.333 21.5 16.3886 21.5 15.1904 21.5H9.19043C6.362 21.5 4.94779 21.5 4.06911 20.6213C3.19043 19.7426 3.19043 18.3284 3.19043 15.5V10.5Z" fill="#161616"/>
<path fill-rule="evenodd" clip-rule="evenodd" d="M19.2081 1.25183C18.8599 1.24463 17.9156 1.24856 16.8247 1.25309L16.3108 1.2552C15.0002 1.26041 13.5712 1.2643 12.6778 1.25166L5.66166 1.25166C5.48476 1.25166 5.14291 1.25555 4.77896 1.32242C4.43571 1.38548 3.95055 1.52514 3.58847 1.88514C3.41307 2.05953 3.27285 2.28085 3.1647 2.47796C3.0515 2.68427 2.94833 2.9111 2.85817 3.12839C2.68425 3.54756 2.54104 3.97496 2.45726 4.22497L2.44962 4.24777L1.77087 6.21549C1.66394 6.50096 1.55138 6.93914 1.49012 7.37599C1.45865 7.60045 1.43816 7.84214 1.44296 8.07583C1.44755 8.29979 1.47592 8.5672 1.57551 8.81475C1.73468 9.21039 2.08288 9.62929 2.36847 9.93374C2.38205 9.94822 2.39572 9.96268 2.40946 9.9771C2.4092 9.98529 2.40906 9.99351 2.40906 10.0018L2.40906 15.0566C2.40904 16.4242 2.40902 17.5265 2.52558 18.3935C2.6466 19.2936 2.90549 20.0515 3.5074 20.6534C4.10932 21.2553 4.86719 21.5142 5.76731 21.6352C6.63427 21.7518 7.7366 21.7518 9.10419 21.7518L12.1591 21.7518C12.5733 21.7518 12.9091 21.416 12.9091 21.0018C12.9091 20.5876 12.5733 20.2518 12.1591 20.2518L9.15906 20.2518C7.72364 20.2518 6.72253 20.2502 5.96718 20.1486C5.23341 20.05 4.84484 19.8695 4.56808 19.5927C4.29131 19.316 4.11086 18.9274 4.01221 18.1936C3.91065 17.4383 3.90906 16.4372 3.90906 15.0018L3.90906 11.1571C4.11318 11.2615 4.34482 11.3614 4.5981 11.4479C5.27167 11.678 6.14483 11.83 7.13732 11.7001C8.03 11.5833 8.75395 11.2135 9.32705 10.7361C9.94307 11.2072 10.9176 11.6893 12.1573 11.7064C13.071 11.719 13.8918 11.4075 14.5262 11.0449C14.7233 10.9322 14.9071 10.8119 15.0754 10.69C15.8366 11.3317 17.2687 12.109 19.391 11.5268C21.9162 10.8341 22.7252 9.20218 22.9267 8.22788C22.9371 8.17791 22.9423 8.12702 22.9423 8.07599C22.9423 7.61159 22.7986 6.94374 22.5378 6.09366C22.2702 5.22141 21.8572 4.0893 21.2704 2.6664C21.2644 2.65192 21.258 2.63764 21.2512 2.62357C21.1453 2.4064 20.9358 2.08725 20.6168 1.81096C20.2909 1.52865 19.8172 1.26441 19.2081 1.25183ZM12.178 10.2065C11.3597 10.1952 10.7204 9.88802 10.3255 9.6094C10.6786 9.07506 10.9045 8.53673 11.019 8.12298C11.1294 7.72375 10.8953 7.3106 10.496 7.20018C10.0968 7.08976 9.68366 7.32388 9.57324 7.72311C9.3275 8.61156 8.45706 10.0147 6.94275 10.2128C6.21479 10.308 5.5753 10.1966 5.083 10.0284C4.57384 9.8545 4.26598 9.63564 4.19605 9.56968C4.1688 9.54398 4.13967 9.52036 4.10889 9.49901C3.9847 9.41286 3.72391 9.18622 3.46249 8.90753C3.18617 8.61295 3.01304 8.36902 2.9671 8.25484C2.9671 8.25484 2.96074 8.23686 2.95485 8.19996C2.94867 8.16124 2.94397 8.10981 2.94264 8.04507C2.93996 7.91419 2.95151 7.756 2.97559 7.58428C3.0246 7.23473 3.1149 6.90142 3.17762 6.73619C3.18033 6.72904 3.18293 6.72185 3.18543 6.71463L3.86872 4.73384L3.87654 4.71051C3.96115 4.45809 4.09023 4.073 4.24365 3.70324C4.322 3.5144 4.40194 3.34133 4.47975 3.19951C4.56261 3.0485 4.62131 2.97347 4.64607 2.94885C4.68431 2.91083 4.80455 2.84282 5.05001 2.79773C5.27479 2.75643 5.50497 2.75166 5.66166 2.75166L12.6619 2.75166C13.572 2.76444 15.013 2.76037 16.3168 2.75519L16.8282 2.7531C17.9279 2.74855 18.8493 2.74474 19.1771 2.75151C19.3474 2.75503 19.4975 2.8259 19.6348 2.94479C19.7679 3.06009 19.8575 3.19518 19.8947 3.26501C20.4649 4.64944 20.8561 5.72636 21.1037 6.53362C21.3347 7.28652 21.4244 7.75399 21.4398 8.00265C21.3074 8.53007 20.8128 9.58135 18.9942 10.0802C17.5937 10.4644 16.6652 10.0311 16.1443 9.62843C16.3342 9.31758 16.5599 8.83645 16.779 8.15164C16.9053 7.75713 16.6878 7.33498 16.2933 7.20873C15.8988 7.08248 15.4766 7.29994 15.3504 7.69445C15.0844 8.52557 14.8497 8.87976 14.801 8.94115C14.626 9.13921 14.262 9.46811 13.7818 9.74264C13.2963 10.0202 12.7411 10.2143 12.178 10.2065Z" fill="#161616"/>
<path d="M6.40906 17.0018C6.40906 16.5876 6.74485 16.2518 7.15906 16.2518L11.1591 16.2518C11.5733 16.2518 11.9091 16.5876 11.9091 17.0018C11.9091 17.416 11.5733 17.7518 11.1591 17.7518L7.15906 17.7518C6.74484 17.7518 6.40906 17.416 6.40906 17.0018Z" fill="#161616"/>
<path d="M17.6591 17.0018C17.6591 16.4495 18.1068 16.0018 18.6591 16.0018L18.6681 16.0018C19.2203 16.0018 19.6681 16.4495 19.6681 17.0018C19.6681 17.554 19.2203 18.0018 18.6681 18.0018L18.6591 18.0018C18.1068 18.0018 17.6591 17.554 17.6591 17.0018Z" fill="#161616"/>
<path fill-rule="evenodd" clip-rule="evenodd" d="M18.6923 12.7479C16.3582 12.7479 14.4423 14.6088 14.4423 16.9335C14.4423 18.258 15.1085 19.2475 15.7993 20.0394C16.0455 20.3216 16.316 20.6015 16.5688 20.863C16.6645 20.962 16.7581 21.0588 16.8464 21.1517C17.1827 21.5052 17.4716 21.8304 17.6949 22.1624C17.8816 22.4401 18.2155 22.7511 18.6981 22.7511C19.1888 22.7511 19.5217 22.4308 19.7026 22.1424C19.9147 21.8044 20.195 21.4799 20.5255 21.1315C20.6335 21.0176 20.7524 20.8958 20.8757 20.7694C21.1053 20.5341 21.3502 20.2831 21.5675 20.0399C22.2638 19.2606 22.9423 18.2848 22.9423 16.9335C22.9423 14.6088 21.0263 12.7479 18.6923 12.7479ZM15.9423 16.9335C15.9423 15.4633 17.1603 14.2479 18.6923 14.2479C20.2242 14.2479 21.4423 15.4633 21.4423 16.9335C21.4423 17.7284 21.0629 18.3534 20.449 19.0405C20.2497 19.2635 20.0511 19.4667 19.8404 19.6823L19.8396 19.683C19.711 19.8146 19.5779 19.9509 19.4372 20.0992C19.1827 20.3674 18.9216 20.6577 18.6856 20.9754C18.4476 20.6692 18.1866 20.3842 17.9334 20.118C17.8263 20.0054 17.722 19.8975 17.62 19.792C17.3777 19.5414 17.149 19.3048 16.9296 19.0533C16.3182 18.3524 15.9423 17.7105 15.9423 16.9335Z" fill="#161616"/>
</svg>
