<svg width="32" height="32" viewBox="0 0 32 32" fill="none" xmlns="http://www.w3.org/2000/svg">
<path d="M0 4C0 1.79086 1.79086 0 4 0H28C30.2091 0 32 1.79086 32 4V28C32 30.2091 30.2091 32 28 32H4C1.79086 32 0 30.2091 0 28V4Z" fill="#079455"/>
<path fill-rule="evenodd" clip-rule="evenodd" d="M14 9.5C12.2511 9.5 10.8334 10.9178 10.8334 12.6667C10.8334 14.4156 12.2511 15.8333 14 15.8333C15.7489 15.8333 17.1667 14.4156 17.1667 12.6667C17.1667 10.9178 15.7489 9.5 14 9.5ZM11.8334 12.6667C11.8334 11.47 12.8034 10.5 14 10.5C15.1967 10.5 16.1667 11.47 16.1667 12.6667C16.1667 13.8633 15.1967 14.8333 14 14.8333C12.8034 14.8333 11.8334 13.8633 11.8334 12.6667Z" fill="white"/>
<path d="M18 9.5C17.7239 9.5 17.5 9.72386 17.5 10C17.5 10.2761 17.7239 10.5 18 10.5C19.1967 10.5 20.1667 11.47 20.1667 12.6667C20.1667 13.8633 19.1967 14.8333 18 14.8333C17.7239 14.8333 17.5 15.0572 17.5 15.3333C17.5 15.6095 17.7239 15.8333 18 15.8333C19.7489 15.8333 21.1667 14.4156 21.1667 12.6667C21.1667 10.9178 19.7489 9.5 18 9.5Z" fill="white"/>
<path fill-rule="evenodd" clip-rule="evenodd" d="M8.83337 20.6667C8.83337 18.5496 10.5496 16.8333 12.6667 16.8333H15.3334C17.4505 16.8333 19.1667 18.5496 19.1667 20.6667C19.1667 21.6792 18.3459 22.5 17.3334 22.5H10.6667C9.65419 22.5 8.83337 21.6792 8.83337 20.6667ZM12.6667 17.8333C11.1019 17.8333 9.83337 19.1019 9.83337 20.6667C9.83337 21.1269 10.2065 21.5 10.6667 21.5H17.3334C17.7936 21.5 18.1667 21.1269 18.1667 20.6667C18.1667 19.1019 16.8982 17.8333 15.3334 17.8333H12.6667Z" fill="white"/>
<path d="M19.3334 16.8333C19.0572 16.8333 18.8334 17.0572 18.8334 17.3333C18.8334 17.6095 19.0572 17.8333 19.3334 17.8333C20.8982 17.8333 22.1667 19.1019 22.1667 20.6667C22.1667 21.1269 21.7936 21.5 21.3334 21.5H20.3334C20.0572 21.5 19.8334 21.7239 19.8334 22C19.8334 22.2761 20.0572 22.5 20.3334 22.5H21.3334C22.3459 22.5 23.1667 21.6792 23.1667 20.6667C23.1667 18.5496 21.4505 16.8333 19.3334 16.8333Z" fill="white"/>
</svg>
