<svg width="25" height="24" viewBox="0 0 25 24" fill="none" xmlns="http://www.w3.org/2000/svg">
<path d="M12.6998 4.75C12.0095 4.75 11.4498 5.30964 11.4498 6C11.4498 6.69036 12.0095 7.25 12.6998 7.25H12.7088C13.3992 7.25 13.9588 6.69036 13.9588 6C13.9588 5.30964 13.3992 4.75 12.7088 4.75H12.6998Z" fill="white" fill-opacity="0.5"/>
<path d="M11.4459 12C11.4459 11.3096 12.0056 10.75 12.6959 10.75H12.7049C13.3953 10.75 13.9549 11.3096 13.9549 12C13.9549 12.6904 13.3953 13.25 12.7049 13.25H12.6959C12.0056 13.25 11.4459 12.6904 11.4459 12Z" fill="white" fill-opacity="0.5"/>
<path d="M6.69983 16.75C6.00947 16.75 5.44983 17.3096 5.44983 18C5.44983 18.6904 6.00947 19.25 6.69983 19.25H6.70881C7.39917 19.25 7.95881 18.6904 7.95881 18C7.95881 17.3096 7.39917 16.75 6.70881 16.75H6.69983Z" fill="white" fill-opacity="0.5"/>
<path d="M11.4459 18C11.4459 17.3096 12.0056 16.75 12.6959 16.75H12.7049C13.3953 16.75 13.9549 17.3096 13.9549 18C13.9549 18.6904 13.3953 19.25 12.7049 19.25H12.6959C12.0056 19.25 11.4459 18.6904 11.4459 18Z" fill="white" fill-opacity="0.5"/>
<path d="M17.4498 18C17.4498 17.3096 18.0095 16.75 18.6998 16.75H18.7088C19.3992 16.75 19.9588 17.3096 19.9588 18C19.9588 18.6904 19.3992 19.25 18.7088 19.25H18.6998C18.0095 19.25 17.4498 18.6904 17.4498 18Z" fill="white" fill-opacity="0.5"/>
<path d="M17.4498 12C17.4498 11.3096 18.0095 10.75 18.6998 10.75H18.7088C19.3992 10.75 19.9588 11.3096 19.9588 12C19.9588 12.6904 19.3992 13.25 18.7088 13.25H18.6998C18.0095 13.25 17.4498 12.6904 17.4498 12Z" fill="white" fill-opacity="0.5"/>
<path d="M18.6998 4.75C18.0095 4.75 17.4498 5.30964 17.4498 6C17.4498 6.69036 18.0095 7.25 18.6998 7.25H18.7088C19.3992 7.25 19.9588 6.69036 19.9588 6C19.9588 5.30964 19.3992 4.75 18.7088 4.75H18.6998Z" fill="white" fill-opacity="0.5"/>
<path d="M5.44983 12C5.44983 11.3096 6.00947 10.75 6.69983 10.75H6.70881C7.39917 10.75 7.95881 11.3096 7.95881 12C7.95881 12.6904 7.39917 13.25 6.70881 13.25H6.69983C6.00947 13.25 5.44983 12.6904 5.44983 12Z" fill="white" fill-opacity="0.5"/>
<path d="M6.69983 4.75C6.00947 4.75 5.44983 5.30964 5.44983 6C5.44983 6.69036 6.00947 7.25 6.69983 7.25H6.70881C7.39917 7.25 7.95881 6.69036 7.95881 6C7.95881 5.30964 7.39917 4.75 6.70881 4.75H6.69983Z" fill="white" fill-opacity="0.5"/>
</svg>
