<svg width="18" height="12" viewBox="0 0 18 12" fill="none" xmlns="http://www.w3.org/2000/svg">
<path d="M0.250488 5.99972C0.250491 6.37328 0.416142 6.71984 0.573008 6.98007C0.742284 7.26089 0.969932 7.55081 1.21967 7.83349C1.72067 8.40056 2.37436 9.00955 3.00872 9.56041C3.64682 10.1145 4.28271 10.6247 4.75774 10.9955C4.99565 11.1812 5.19412 11.3326 5.33353 11.4379C5.40325 11.4906 5.45825 11.5318 5.49607 11.56L5.53964 11.5924L5.5512 11.6009L5.55521 11.6039C5.88871 11.8495 6.35865 11.7787 6.60431 11.4452C6.84996 11.1117 6.77877 10.6422 6.4453 10.3965L6.43258 10.3871L6.39253 10.3573C6.35711 10.3309 6.30468 10.2917 6.23769 10.2411C6.10366 10.1398 5.91151 9.99323 5.68068 9.81306C5.21821 9.45209 4.60412 8.95919 3.99222 8.42784C3.3766 7.89325 2.7803 7.33442 2.3438 6.84035C2.31619 6.8091 2.28947 6.77839 2.26365 6.74823L17.0005 6.74823C17.4147 6.74823 17.7505 6.41244 17.7505 5.99823C17.7505 5.58402 17.4147 5.24823 17.0005 5.24823L2.26619 5.24823C2.29122 5.21903 2.3171 5.1893 2.3438 5.15907C2.7803 4.665 3.3766 4.10618 3.99222 3.57159C4.60412 3.04023 5.21821 2.54734 5.68068 2.18637C5.91151 2.00619 6.10365 1.8596 6.23769 1.75834C6.30468 1.70773 6.35711 1.66849 6.39252 1.64209L6.43257 1.61232L6.4453 1.60291C6.77877 1.35724 6.84996 0.887758 6.6043 0.554272C6.35864 0.22077 5.88871 0.149879 5.55521 0.395541L5.5512 0.398501L5.53964 0.407055L5.49607 0.43944C5.45825 0.467634 5.40325 0.508806 5.33353 0.561476C5.19412 0.666787 4.99564 0.818223 4.75773 1.00392C4.28271 1.37469 3.64681 1.88491 3.00872 2.43901C2.37435 2.98988 1.72066 3.59886 1.21967 4.16593C0.969932 4.44861 0.742284 4.73854 0.573007 5.01935C0.417085 5.27802 0.252481 5.622 0.250505 5.99299" fill="#166A45"/>
</svg>
