<svg width="32" height="32" viewBox="0 0 32 32" fill="none" xmlns="http://www.w3.org/2000/svg">
<path d="M0 4C0 1.79086 1.79086 0 4 0H28C30.2091 0 32 1.79086 32 4V28C32 30.2091 30.2091 32 28 32H4C1.79086 32 0 30.2091 0 28V4Z" fill="#F3F4F6"/>
<path fill-rule="evenodd" clip-rule="evenodd" d="M16.0006 7.04166C12.2119 7.04166 9.10485 10.018 9.10482 13.7328C9.10474 14.5887 9.04553 15.2272 8.64409 15.802C8.57052 15.9058 8.49262 16.0091 8.40732 16.1223L8.33902 16.213C8.22957 16.3587 8.1115 16.5184 8.00103 16.6864C7.78212 17.0193 7.56588 17.4241 7.4914 17.898C7.24786 19.4475 8.37136 20.437 9.46077 20.8751C13.3294 22.4305 18.6718 22.4305 22.5403 20.8751C23.6297 20.437 24.7532 19.4475 24.5097 17.898C24.4352 17.4241 24.219 17.0193 24.0001 16.6864C23.8896 16.5184 23.7715 16.3587 23.6621 16.213L23.5938 16.1224C23.5086 16.0093 23.4306 15.9058 23.357 15.802C22.9556 15.2272 22.8964 14.5888 22.8963 13.7328C22.8963 10.018 19.7893 7.04166 16.0006 7.04166ZM10.3548 13.7328C10.3548 10.7471 12.8628 8.29166 16.0006 8.29166C19.1383 8.29166 21.6463 10.7471 21.6463 13.7328C21.6464 14.61 21.6909 15.601 22.3337 16.5199L22.3358 16.5228C22.4216 16.644 22.5143 16.7669 22.6012 16.8821L22.6627 16.9638C22.7698 17.1064 22.868 17.2399 22.9556 17.3732C23.133 17.6428 23.2404 17.873 23.2749 18.0921C23.3857 18.7976 22.9247 19.3733 22.074 19.7153C18.5047 21.1504 13.4964 21.1504 9.92708 19.7153C9.0764 19.3733 8.61536 18.7976 8.72624 18.0921C8.76067 17.873 8.86814 17.6428 9.04547 17.3732C9.13311 17.2399 9.23128 17.1064 9.33842 16.9638L9.39993 16.8821C9.48683 16.7669 9.5795 16.644 9.66529 16.5228L9.66736 16.5199C10.3102 15.601 10.3547 14.61 10.3548 13.7328Z" fill="#161616"/>
<path d="M13.8859 23.0075C13.6138 22.795 13.2211 22.8433 13.0086 23.1153C12.7961 23.3873 12.8444 23.7801 13.1164 23.9926C13.8922 24.5986 14.9045 24.9584 16.0011 24.9584C17.0977 24.9584 18.11 24.5986 18.8859 23.9926C19.1579 23.7801 19.2061 23.3873 18.9937 23.1153C18.7812 22.8433 18.3884 22.795 18.1164 23.0075C17.5654 23.4379 16.8254 23.7084 16.0011 23.7084C15.1769 23.7084 14.4369 23.4379 13.8859 23.0075Z" fill="#161616"/>
</svg>
