<svg width="57" height="40" viewBox="0 0 57 40" fill="none" xmlns="http://www.w3.org/2000/svg">
<path d="M0 0H57V40H0V0Z" fill="#F3F4F6"/>
<path d="M20.192 24.008V20.664H17.072V19.576H20.192V16.232H21.408V19.576H24.528V20.664H21.408V24.008H20.192ZM34.1218 17.928C34.1218 18.76 33.9991 19.544 33.7538 20.28C33.5084 21.0053 33.1884 21.672 32.7938 22.28C32.4098 22.8773 31.9831 23.4107 31.5138 23.88C31.0444 24.3387 30.5858 24.712 30.1378 25H28.4098C29.0071 24.5627 29.5404 24.136 30.0098 23.72C30.4791 23.304 30.8898 22.872 31.2418 22.424C31.5938 21.9653 31.8924 21.48 32.1378 20.968C32.3831 20.4453 32.5804 19.8587 32.7298 19.208L32.6498 19.176C32.3831 19.6347 32.0364 20.0187 31.6098 20.328C31.1938 20.6267 30.6444 20.776 29.9618 20.776C29.4818 20.776 29.0391 20.696 28.6338 20.536C28.2284 20.376 27.8818 20.1467 27.5938 19.848C27.3058 19.5493 27.0764 19.192 26.9058 18.776C26.7458 18.3493 26.6658 17.8693 26.6658 17.336C26.6658 16.792 26.7511 16.296 26.9218 15.848C27.1031 15.3893 27.3538 15 27.6738 14.68C28.0044 14.3493 28.3938 14.0933 28.8418 13.912C29.3004 13.7307 29.8124 13.64 30.3778 13.64C30.9538 13.64 31.4711 13.7413 31.9298 13.944C32.3991 14.136 32.7938 14.4187 33.1138 14.792C33.4444 15.1547 33.6951 15.6027 33.8658 16.136C34.0364 16.6693 34.1218 17.2667 34.1218 17.928ZM30.3938 19.64C31.1298 19.64 31.7004 19.4373 32.1058 19.032C32.5218 18.6267 32.7298 18.0453 32.7298 17.288V17.16C32.7298 16.4027 32.5218 15.8213 32.1058 15.416C31.7004 15.0107 31.1298 14.808 30.3938 14.808C29.6578 14.808 29.0818 15.0107 28.6658 15.416C28.2604 15.8213 28.0578 16.4027 28.0578 17.16V17.288C28.0578 18.0453 28.2604 18.6267 28.6658 19.032C29.0818 19.4373 29.6578 19.64 30.3938 19.64ZM40.0035 25.192C39.4275 25.192 38.9048 25.096 38.4355 24.904C37.9768 24.7013 37.5822 24.4187 37.2515 24.056C36.9315 23.6827 36.6862 23.2293 36.5155 22.696C36.3448 22.1627 36.2595 21.5653 36.2595 20.904C36.2595 20.072 36.3822 19.2933 36.6275 18.568C36.8728 17.832 37.1875 17.1653 37.5715 16.568C37.9662 15.96 38.3982 15.4267 38.8675 14.968C39.3368 14.4987 39.7955 14.12 40.2435 13.832H41.9715C41.3742 14.2693 40.8408 14.696 40.3715 15.112C39.9022 15.528 39.4915 15.9653 39.1395 16.424C38.7875 16.872 38.4888 17.3573 38.2435 17.88C37.9982 18.392 37.8008 18.9733 37.6515 19.624L37.7315 19.656C37.9982 19.1973 38.3395 18.8187 38.7555 18.52C39.1822 18.2107 39.7368 18.056 40.4195 18.056C40.8995 18.056 41.3422 18.136 41.7475 18.296C42.1528 18.456 42.4995 18.6853 42.7875 18.984C43.0755 19.2827 43.2995 19.6453 43.4595 20.072C43.6302 20.4987 43.7155 20.9733 43.7155 21.496C43.7155 22.04 43.6248 22.5413 43.4435 23C43.2728 23.448 43.0222 23.8373 42.6915 24.168C42.3715 24.488 41.9822 24.7387 41.5235 24.92C41.0648 25.1013 40.5582 25.192 40.0035 25.192ZM39.9875 24.024C40.7235 24.024 41.2942 23.8213 41.6995 23.416C42.1155 23.0107 42.3235 22.4293 42.3235 21.672V21.544C42.3235 20.7867 42.1155 20.2053 41.6995 19.8C41.2942 19.3947 40.7235 19.192 39.9875 19.192C39.2515 19.192 38.6755 19.3947 38.2595 19.8C37.8542 20.2053 37.6515 20.7867 37.6515 21.544V21.672C37.6515 22.4293 37.8542 23.0107 38.2595 23.416C38.6755 23.8213 39.2515 24.024 39.9875 24.024ZM49.5973 25.192C49.0213 25.192 48.4986 25.096 48.0293 24.904C47.5706 24.7013 47.1759 24.4187 46.8453 24.056C46.5253 23.6827 46.2799 23.2293 46.1093 22.696C45.9386 22.1627 45.8533 21.5653 45.8533 20.904C45.8533 20.072 45.9759 19.2933 46.2213 18.568C46.4666 17.832 46.7813 17.1653 47.1653 16.568C47.5599 15.96 47.9919 15.4267 48.4613 14.968C48.9306 14.4987 49.3893 14.12 49.8373 13.832H51.5653C50.9679 14.2693 50.4346 14.696 49.9653 15.112C49.4959 15.528 49.0853 15.9653 48.7333 16.424C48.3813 16.872 48.0826 17.3573 47.8373 17.88C47.5919 18.392 47.3946 18.9733 47.2453 19.624L47.3253 19.656C47.5919 19.1973 47.9333 18.8187 48.3493 18.52C48.7759 18.2107 49.3306 18.056 50.0133 18.056C50.4933 18.056 50.9359 18.136 51.3413 18.296C51.7466 18.456 52.0933 18.6853 52.3813 18.984C52.6693 19.2827 52.8933 19.6453 53.0533 20.072C53.2239 20.4987 53.3093 20.9733 53.3093 21.496C53.3093 22.04 53.2186 22.5413 53.0373 23C52.8666 23.448 52.6159 23.8373 52.2853 24.168C51.9653 24.488 51.5759 24.7387 51.1173 24.92C50.6586 25.1013 50.1519 25.192 49.5973 25.192ZM49.5813 24.024C50.3173 24.024 50.8879 23.8213 51.2933 23.416C51.7093 23.0107 51.9173 22.4293 51.9173 21.672V21.544C51.9173 20.7867 51.7093 20.2053 51.2933 19.8C50.8879 19.3947 50.3173 19.192 49.5813 19.192C48.8453 19.192 48.2693 19.3947 47.8533 19.8C47.4479 20.2053 47.2453 20.7867 47.2453 21.544V21.672C47.2453 22.4293 47.4479 23.0107 47.8533 23.416C48.2693 23.8213 48.8453 24.024 49.5813 24.024Z" fill="#6C737F"/>
</svg>
