<svg width="16" height="18" viewBox="0 0 16 18" fill="none" xmlns="http://www.w3.org/2000/svg">
<path d="M5.08333 11.9167C5.08333 11.4564 5.45642 11.0833 5.91666 11.0833H5.92413C6.38437 11.0833 6.75747 11.4564 6.75747 11.9167C6.75747 12.3769 6.38437 12.75 5.92413 12.75H5.91666C5.45642 12.75 5.08333 12.3769 5.08333 11.9167Z" fill="#161616"/>
<path d="M9.24252 11.9167C9.24252 11.4564 9.61562 11.0833 10.0759 11.0833H10.0833C10.5436 11.0833 10.9167 11.4564 10.9167 11.9167C10.9167 12.3769 10.5436 12.75 10.0833 12.75H10.0759C9.61562 12.75 9.24252 12.3769 9.24252 11.9167Z" fill="#161616"/>
<path fill-rule="evenodd" clip-rule="evenodd" d="M3.62499 6.04924V4.41667C3.62499 2.00042 5.58375 0.041666 7.99999 0.041666C10.4162 0.041666 12.375 2.00042 12.375 4.41667V6.04924C13.784 6.3857 14.8658 7.58204 15.0629 9.04598C15.1864 9.96297 15.2917 10.9265 15.2917 11.9167C15.2917 12.9068 15.1864 13.8704 15.0629 14.7874C14.8366 16.4682 13.444 17.7963 11.729 17.8751C10.5386 17.9298 9.32986 17.9583 8 17.9583C6.67013 17.9583 5.46136 17.9298 4.27101 17.8751C2.55596 17.7963 1.1634 16.4682 0.937093 14.7874C0.813631 13.8704 0.708328 12.9068 0.708328 11.9167C0.708328 10.9265 0.81363 9.96297 0.937093 9.04598C1.1342 7.58204 2.21599 6.3857 3.62499 6.04924ZM4.87499 4.41667C4.87499 2.69078 6.27411 1.29167 7.99999 1.29167C9.72588 1.29167 11.125 2.69078 11.125 4.41667V5.93281C10.1277 5.89471 9.1057 5.875 8 5.875C6.89429 5.875 5.87229 5.89471 4.87499 5.93281V4.41667ZM8 7.125C6.6887 7.125 5.49908 7.1531 4.32841 7.20692C3.23758 7.25707 2.32441 8.1099 2.17591 9.21278C2.05477 10.1126 1.95833 11.0108 1.95833 11.9167C1.95833 12.8226 2.05477 13.7208 2.17592 14.6206C2.32441 15.7234 3.23758 16.5763 4.32841 16.6264C5.49908 16.6802 6.6887 16.7083 8 16.7083C9.31129 16.7083 10.5009 16.6802 11.6716 16.6264C12.7624 16.5763 13.6756 15.7234 13.8241 14.6206C13.9452 13.7208 14.0417 12.8226 14.0417 11.9167C14.0417 11.0108 13.9452 10.1126 13.8241 9.21278C13.6756 8.1099 12.7624 7.25707 11.6716 7.20692C10.5009 7.1531 9.31129 7.125 8 7.125Z" fill="#161616"/>
</svg>
