<svg width="20" height="20" viewBox="0 0 20 20" fill="none" xmlns="http://www.w3.org/2000/svg">
<path fill-rule="evenodd" clip-rule="evenodd" d="M17.0837 11.4583C16.7389 11.4581 16.4591 11.1782 16.4591 10.8333V6.52497C16.4591 5.19081 16.4591 4.52086 16.2791 4.07502C15.9858 3.33086 15.3649 2.74495 14.5741 2.46329C14.0784 2.29166 13.3619 2.29166 11.935 2.29166H11.9341C11.6813 2.29166 11.441 2.29166 11.2123 2.29198C10.0438 2.31214 9.09998 3.26839 9.09998 4.44164C9.09998 4.57473 9.10594 4.71825 9.11222 4.86937L9.11332 4.89582C9.13332 5.35082 9.15576 5.86751 9.02909 6.35001C8.84826 7.05001 8.29912 7.59919 7.59745 7.78002C7.11662 7.90585 6.59998 7.88335 6.14498 7.86335L6.11651 7.86217C5.96623 7.85592 5.82407 7.85001 5.6908 7.85001C4.52504 7.85001 3.57352 8.78179 3.54164 9.93996L3.54163 10.8333C3.54163 11.1783 3.26163 11.4583 2.91663 11.4583C2.57163 11.4583 2.29163 11.1783 2.29163 10.8333L2.29163 9.99316C2.29185 7.55969 2.30159 6.31384 2.7266 5.23664C3.42077 3.47914 4.88414 2.09668 6.74247 1.44335C7.78383 1.07989 8.98827 1.0453 11.201 1.042C11.2173 1.04177 11.2336 1.04166 11.25 1.04166C11.256 1.04166 11.262 1.04174 11.268 1.04191C11.4803 1.04166 11.7019 1.04166 11.9333 1.04166C13.5016 1.04166 14.2883 1.04166 14.9882 1.28498C16.1241 1.68998 17.0157 2.53746 17.4399 3.61246C17.7082 4.27912 17.7083 5.02997 17.7083 6.52497V10.8333C17.7083 11.1782 17.4285 11.4581 17.0837 11.4583ZM7.15662 2.62336C7.54796 2.48673 7.99517 2.40638 8.56394 2.35913C8.1166 2.93484 7.84998 3.65764 7.84998 4.44164C7.84998 4.60997 7.85745 4.78336 7.86495 4.95002L7.86509 4.95319C7.88171 5.33721 7.8989 5.73414 7.81995 6.03498C7.75161 6.29665 7.54666 6.50164 7.28333 6.56998C6.98409 6.64811 6.58702 6.63092 6.20294 6.61429L6.19999 6.61417C6.03249 6.60667 5.85994 6.59919 5.69161 6.59919C4.89771 6.59919 4.16656 6.87259 3.58736 7.33019C3.6316 6.6392 3.71865 6.12891 3.88993 5.69579C4.45077 4.27579 5.64162 3.15586 7.15662 2.62336Z" fill="#161616"/>
<path d="M13.5416 18.3341C13.5416 18.6791 13.8216 18.9591 14.1666 18.9591C14.5116 18.9591 14.7916 18.6791 14.7916 18.3341V16.4591H16.25C16.595 16.4591 16.875 16.1791 16.875 15.8341C16.875 15.4891 16.595 15.2091 16.25 15.2091H14.7916V15.0008C14.7916 14.6033 14.7916 14.1125 14.8508 14.0183C14.9458 13.9591 15.4366 13.9591 15.8332 13.9591H17.0833C17.4283 13.9591 17.7083 13.6791 17.7083 13.3341C17.7083 12.9891 17.4283 12.7091 17.0833 12.7091H15.8333C14.9434 12.7091 14.4058 12.7091 13.9742 13.1266L13.9591 13.1417C13.5416 13.5733 13.5416 14.1108 13.5416 15.0007V18.3341Z" fill="#161616"/>
<path fill-rule="evenodd" clip-rule="evenodd" d="M8.27332 18.81C8.53415 18.9591 8.79913 18.9591 9.16663 18.9591C10.89 18.9591 12.2916 17.5567 12.2916 15.8333C12.2916 14.11 10.89 12.7083 9.16663 12.7083C8.80002 12.7083 8.53408 12.7083 8.27161 12.8583C7.70244 13.1858 7.70579 13.7841 7.70829 14.105V17.5617C7.70579 17.8833 7.70165 18.4808 8.27332 18.81ZM9.16197 17.7091C9.09252 17.7091 9.01943 17.7091 8.95829 17.7083V14.0975C8.95746 14.0567 8.95663 14.0058 8.95829 13.96C9.01937 13.9591 9.09319 13.9591 9.16185 13.9591H9.16663C10.2008 13.9591 11.0416 14.8 11.0416 15.8341C11.0416 16.8683 10.2008 17.7091 9.16663 17.7091H9.16197Z" fill="#161616"/>
<path fill-rule="evenodd" clip-rule="evenodd" d="M2.29163 18.3341C2.29163 18.6791 2.57163 18.9591 2.91663 18.9591C3.26163 18.9591 3.54163 18.6791 3.54163 18.3341V16.4591H4.58329C5.61746 16.4591 6.45829 15.6183 6.45829 14.5841C6.45829 13.55 5.61746 12.7091 4.58329 12.7091H3.91663C3.35663 12.7091 2.94996 12.7091 2.62496 13.0425C2.29163 13.3666 2.29163 13.7733 2.29163 14.3341V18.3341ZM4.58329 15.2091H3.54163V14.3314C3.54163 14.203 3.54163 14.0642 3.54659 13.9641C3.64589 13.9591 3.78548 13.9591 3.91389 13.9591H4.58329C4.92829 13.9591 5.20829 14.2391 5.20829 14.5841C5.20829 14.9291 4.92829 15.2091 4.58329 15.2091Z" fill="#161616"/>
</svg>
