<svg width="21" height="20" viewBox="0 0 21 20" fill="none" xmlns="http://www.w3.org/2000/svg">
<path fill-rule="evenodd" clip-rule="evenodd" d="M4.93058 1.07198C5.40282 1.16958 5.7789 1.48686 6.01256 1.90606L6.7569 3.24142C7.03108 3.73326 7.26181 4.14717 7.41248 4.50698C7.57232 4.88866 7.66725 5.26504 7.62386 5.68117C7.58046 6.09731 7.40992 6.44601 7.17477 6.7865C6.9531 7.10748 6.64193 7.46487 6.27218 7.88956L4.41563 10.0221C5.888 12.4354 8.06212 14.6105 10.4779 16.0844L12.6104 14.2278C13.0351 13.8581 13.3925 13.5469 13.7135 13.3252C14.054 13.0901 14.4027 12.9195 14.8188 12.8761C15.235 12.8327 15.6113 12.9277 15.993 13.0875C16.3528 13.2382 16.7667 13.4689 17.2586 13.7431L18.5939 14.4874C19.0131 14.7211 19.3304 15.0972 19.428 15.5694C19.5266 16.0466 19.3812 16.5262 19.0599 16.9204C17.8941 18.3507 16.0264 19.2614 14.067 18.8661C12.8627 18.6232 11.6743 18.2184 10.2371 17.3942C7.34928 15.738 4.76005 13.1474 3.10583 10.2629C2.28156 8.82566 1.8768 7.63734 1.63385 6.43295C1.2386 4.4736 2.14929 2.60587 3.5796 1.44012C3.97379 1.11883 4.45342 0.973354 4.93058 1.07198ZM11.6422 16.7281C12.6142 17.207 13.4596 17.4684 14.3142 17.6408C15.7276 17.9259 17.1545 17.2797 18.0909 16.1307C18.2139 15.9798 18.2147 15.8745 18.2039 15.8224C18.1921 15.7654 18.1444 15.6679 17.9853 15.5793L16.6799 14.8516C16.1502 14.5564 15.7976 14.3608 15.5102 14.2405C15.2374 14.1263 15.0808 14.1056 14.9485 14.1194C14.8161 14.1332 14.6672 14.1857 14.4238 14.3538C14.1675 14.5308 13.8627 14.7949 13.4054 15.1931L11.6422 16.7281ZM3.77191 8.8578L5.3069 7.09464C5.70509 6.63726 5.96916 6.33254 6.14621 6.07616C6.31428 5.8328 6.3668 5.68389 6.3806 5.55152C6.3944 5.41916 6.37374 5.26261 6.2595 4.98981C6.13915 4.70242 5.94363 4.34978 5.64837 3.82008L4.92072 2.51465C4.83207 2.35561 4.73459 2.30789 4.67758 2.2961C4.62549 2.28534 4.52018 2.28609 4.36932 2.40905C3.22034 3.34552 2.57405 4.7724 2.85916 6.18578C3.03157 7.04043 3.29297 7.88583 3.77191 8.8578Z" fill="white"/>
</svg>
