<svg width="24" height="24" viewBox="0 0 24 24" fill="none" xmlns="http://www.w3.org/2000/svg">
<path d="M20.7495 11.9996C20.7495 11.6261 20.5839 11.2795 20.427 11.0193C20.2577 10.7384 20.0301 10.4485 19.7803 10.1658C19.2794 9.59877 18.6257 8.98979 17.9913 8.43892C17.3532 7.88481 16.7173 7.3746 16.2423 7.00383C16.0044 6.81813 15.8059 6.6667 15.6665 6.56138C15.5968 6.50871 15.5418 6.46754 15.5039 6.43935L15.4604 6.40696L15.4488 6.39841L15.4448 6.39545C15.1113 6.14979 14.6414 6.22068 14.3957 6.55418C14.1501 6.88767 14.2213 7.35715 14.5547 7.60282L14.5674 7.61223L14.6075 7.642C14.6429 7.6684 14.6953 7.70764 14.7623 7.75825C14.8964 7.85951 15.0885 8.0061 15.3193 8.18628C15.7818 8.54725 16.3959 9.04014 17.0078 9.57149C17.6234 10.1061 18.2197 10.6649 18.6562 11.159C18.6838 11.1902 18.7105 11.2209 18.7364 11.2511L3.99951 11.2511C3.5853 11.2511 3.24951 11.5869 3.24951 12.0011C3.24951 12.4153 3.5853 12.7511 3.99951 12.7511L18.7338 12.7511C18.7088 12.7803 18.6829 12.81 18.6562 12.8403C18.2197 13.3343 17.6234 13.8932 17.0078 14.4277C16.3959 14.9591 15.7818 15.452 15.3193 15.813C15.0885 15.9931 14.8964 16.1397 14.7623 16.241C14.6953 16.2916 14.6429 16.3308 14.6075 16.3572L14.5674 16.387L14.5547 16.3964C14.2213 16.6421 14.1501 17.1116 14.3957 17.4451C14.6414 17.7786 15.1113 17.8495 15.4448 17.6038L15.4488 17.6008L15.4604 17.5923L15.5039 17.5599C15.5418 17.5317 15.5968 17.4905 15.6665 17.4379C15.8059 17.3325 16.0044 17.1811 16.2423 16.9954C16.7173 16.6246 17.3532 16.1144 17.9913 15.5603C18.6257 15.0095 19.2794 14.4005 19.7803 13.8334C20.0301 13.5507 20.2577 13.2608 20.427 12.98C20.5829 12.7213 20.7475 12.3773 20.7495 12.0063" fill="#161616"/>
</svg>
