<svg width="32" height="32" viewBox="0 0 32 32" fill="none" xmlns="http://www.w3.org/2000/svg">
<path d="M0 4C0 1.79086 1.79086 0 4 0H28C30.2091 0 32 1.79086 32 4V28C32 30.2091 30.2091 32 28 32H4C1.79086 32 0 30.2091 0 28V4Z" fill="#079455"/>
<path fill-rule="evenodd" clip-rule="evenodd" d="M16 9.16666C12.226 9.16666 9.16663 12.226 9.16663 16C9.16663 19.7739 12.226 22.8333 16 22.8333C19.7739 22.8333 22.8333 19.7739 22.8333 16C22.8333 12.226 19.7739 9.16666 16 9.16666ZM8.16663 16C8.16663 11.6738 11.6737 8.16666 16 8.16666C20.3262 8.16666 23.8333 11.6738 23.8333 16C23.8333 20.3262 20.3262 23.8333 16 23.8333C11.6737 23.8333 8.16663 20.3262 8.16663 16Z" fill="white"/>
<path d="M11.3815 17.1C11.3815 18.1022 11.9804 18.6889 13.0437 18.6889C14.2415 18.6889 14.7915 18.0839 14.7915 16.7578V12.9872C14.7915 12.8286 14.6629 12.7 14.5042 12.7C14.3456 12.7 14.217 12.8286 14.217 12.9872V16.7578C14.217 17.6439 13.9665 17.9494 13.2576 17.9494H12.8359C12.237 17.9494 11.8704 17.6072 11.8704 17.0144C11.8704 16.791 11.9342 16.5107 12.0322 16.2386C12.0808 16.1036 12.0116 15.951 11.8743 15.9094C11.7574 15.8741 11.6321 15.9325 11.5908 16.0473C11.4598 16.4115 11.3815 16.7906 11.3815 17.1Z" fill="white"/>
<path d="M15.6291 16.1466C15.6291 16.9228 15.953 17.2222 16.7535 17.2222H17.0426C17.9042 17.2222 18.3137 16.8555 18.3137 16.0916C18.3137 15.9083 18.2892 15.6455 18.2403 15.3216L18.2005 15.0548C18.1787 14.909 18.042 14.8091 17.8965 14.8325C17.7499 14.8561 17.6513 14.9957 17.6782 15.1418L17.727 15.4072C17.782 15.7555 17.8003 15.9511 17.8003 16.0916C17.8003 16.4278 17.5987 16.5316 17.0426 16.5316H16.9124H16.7107C16.3502 16.5316 16.1974 16.4278 16.1974 16.0916V12.9841C16.1974 12.8272 16.0702 12.7 15.9132 12.7C15.7563 12.7 15.6291 12.8272 15.6291 12.9841V16.1466Z" fill="white"/>
<path d="M17.0181 18.3405C17.0181 18.5789 17.1403 18.6889 17.3237 18.6889H17.4153C17.5987 18.6889 17.727 18.5789 17.727 18.3405C17.727 18.0961 17.5987 17.9922 17.4153 17.9922H17.3237C17.1403 17.9922 17.0181 18.0961 17.0181 18.3405Z" fill="white"/>
<path d="M16.1564 18.3405C16.1564 18.5789 16.2787 18.6889 16.462 18.6889H16.5537C16.737 18.6889 16.8653 18.5789 16.8653 18.3405C16.8653 18.0961 16.737 17.9922 16.5537 17.9922H16.462C16.2787 17.9922 16.1564 18.0961 16.1564 18.3405Z" fill="white"/>
<path d="M18.8094 18.2305V18.4505C18.8094 18.5822 18.9161 18.6889 19.0477 18.6889C20.1966 18.6889 20.6549 17.9005 20.6549 16.8922C20.6549 16.605 20.6183 16.2628 20.551 15.8778L20.5101 15.6321C20.4856 15.4851 20.3452 15.3868 20.1987 15.4141C20.0553 15.4407 19.96 15.5778 19.9849 15.7215L20.0683 16.2016C20.1049 16.44 20.1355 16.6783 20.1355 16.8983C20.1355 17.5583 19.8666 17.9983 19.0416 17.9983C18.9134 17.9983 18.8094 18.1023 18.8094 18.2305Z" fill="white"/>
<path fill-rule="evenodd" clip-rule="evenodd" d="M11.7214 18.3663C11.4065 18.0633 11.2482 17.6278 11.2482 17.1C11.2482 16.7709 11.3308 16.3762 11.4653 16.0022C11.5321 15.8164 11.7325 15.7272 11.9129 15.7818C12.1295 15.8474 12.2299 16.0831 12.1576 16.2838C12.0623 16.5485 12.0037 16.8124 12.0037 17.0144C12.0037 17.2828 12.086 17.4787 12.2209 17.608C12.3565 17.738 12.5614 17.8161 12.8359 17.8161H13.2576C13.5967 17.8161 13.7859 17.7426 13.8995 17.6021C14.0199 17.453 14.0837 17.1962 14.0837 16.7578V12.9872C14.0837 12.7549 14.272 12.5667 14.5043 12.5667C14.7365 12.5667 14.9248 12.7549 14.9248 12.9872V16.7578C14.9248 17.4355 14.7849 17.9577 14.4656 18.3101C14.1437 18.6654 13.6636 18.8222 13.0437 18.8222C12.4882 18.8222 12.0356 18.6687 11.7214 18.3663ZM15.7993 17.0722C15.5791 16.8631 15.4958 16.549 15.4958 16.1466V12.9842C15.4958 12.7536 15.6827 12.5667 15.9133 12.5667C16.1439 12.5667 16.3308 12.7536 16.3308 12.9842V16.0917C16.3308 16.2429 16.3653 16.3035 16.4032 16.3344C16.4485 16.3714 16.5359 16.3983 16.7108 16.3983H17.0426C17.3206 16.3983 17.4778 16.3707 17.5643 16.3217C17.6026 16.2999 17.6253 16.2748 17.6402 16.2441C17.6561 16.2111 17.667 16.1633 17.667 16.0917C17.667 15.9621 17.6501 15.7753 17.5956 15.4297L17.5471 15.1659C17.5067 14.9463 17.6549 14.7364 17.8754 14.7009C18.0942 14.6657 18.2996 14.8159 18.3324 15.0351L18.3722 15.3017C18.4215 15.6283 18.447 15.8986 18.447 16.0917C18.447 16.4967 18.3379 16.822 18.09 17.0429C17.8452 17.261 17.489 17.3555 17.0426 17.3555H16.7536C16.3419 17.3555 16.0178 17.2796 15.7993 17.0722ZM18.2404 15.3217L18.2005 15.0548C18.1787 14.909 18.0421 14.8091 17.8966 14.8325C17.7499 14.8561 17.6514 14.9957 17.6782 15.1418L17.727 15.4072C17.782 15.7555 17.8004 15.9511 17.8004 16.0917C17.8004 16.4278 17.5987 16.5317 17.0426 16.5317H16.7108C16.3502 16.5317 16.1974 16.4278 16.1974 16.0917V12.9842C16.1974 12.8272 16.0702 12.7 15.9133 12.7C15.7563 12.7 15.6291 12.8272 15.6291 12.9842V16.1466C15.6291 16.9228 15.953 17.2222 16.7536 17.2222H17.0426C17.9043 17.2222 18.3137 16.8555 18.3137 16.0917C18.3137 15.9083 18.2893 15.6455 18.2404 15.3217ZM16.9409 18.0747C16.923 18.0406 16.9008 18.0094 16.8738 17.9817C16.7868 17.8923 16.67 17.8589 16.5537 17.8589H16.462C16.3456 17.8589 16.2294 17.8924 16.1436 17.9831C16.0589 18.0726 16.0231 18.1977 16.0231 18.3405C16.0231 18.4812 16.0593 18.6054 16.143 18.6951C16.2279 18.786 16.3435 18.8222 16.462 18.8222H16.5537C16.672 18.8222 16.7883 18.7861 16.8745 18.6964C16.9011 18.6687 16.9231 18.6376 16.9409 18.6036C16.9579 18.637 16.9791 18.6676 17.0047 18.6951C17.0896 18.786 17.2052 18.8222 17.3237 18.8222H17.4154C17.5337 18.8222 17.65 18.7861 17.7361 18.6964C17.8218 18.6072 17.8604 18.4829 17.8604 18.3405C17.8604 18.196 17.8222 18.0708 17.7355 17.9817C17.6485 17.8923 17.5317 17.8589 17.4154 17.8589H17.3237C17.2072 17.8589 17.0911 17.8924 17.0053 17.9831C16.9794 18.0105 16.958 18.0412 16.9409 18.0747ZM18.6761 18.4505V18.2305C18.6761 18.0286 18.8397 17.865 19.0416 17.865C19.4313 17.865 19.6617 17.7616 19.7981 17.6075C19.9374 17.4501 20.0022 17.2138 20.0022 16.8983C20.0022 16.6895 19.9731 16.4602 19.9367 16.2232L19.8536 15.7443C19.8162 15.5287 19.9591 15.323 20.1743 15.283C20.3942 15.2421 20.6049 15.3896 20.6417 15.6102L20.6824 15.8548C20.6824 15.8547 20.6825 15.855 20.6824 15.8548C20.7503 16.244 20.7883 16.5947 20.7883 16.8922C20.7883 17.414 20.6701 17.8968 20.3864 18.2519C20.0987 18.6119 19.6555 18.8222 19.0477 18.8222C18.8425 18.8222 18.6761 18.6558 18.6761 18.4505ZM20.5511 15.8778L20.5101 15.6322C20.4856 15.4851 20.3452 15.3868 20.1987 15.4141C20.0553 15.4407 19.96 15.5778 19.985 15.7215L20.0683 16.2017C20.105 16.44 20.1355 16.6783 20.1355 16.8983C20.1355 17.5583 19.8666 17.9983 19.0416 17.9983C18.9134 17.9983 18.8094 18.1023 18.8094 18.2305V18.4505C18.8094 18.5822 18.9161 18.6889 19.0477 18.6889C20.1966 18.6889 20.655 17.9005 20.655 16.8922C20.655 16.605 20.6183 16.2628 20.5511 15.8778ZM11.3815 17.1C11.3815 18.1022 11.9804 18.6889 13.0437 18.6889C14.2415 18.6889 14.7915 18.0839 14.7915 16.7578V12.9872C14.7915 12.8286 14.6629 12.7 14.5043 12.7C14.3457 12.7 14.2171 12.8286 14.2171 12.9872V16.7578C14.2171 17.6439 13.9665 17.9494 13.2576 17.9494H12.8359C12.2371 17.9494 11.8704 17.6072 11.8704 17.0144C11.8704 16.791 11.9342 16.5107 12.0322 16.2386C12.0808 16.1036 12.0117 15.951 11.8743 15.9094C11.7575 15.8741 11.6321 15.9325 11.5908 16.0473C11.4598 16.4115 11.3815 16.7906 11.3815 17.1ZM17.3237 18.6889C17.1404 18.6889 17.0181 18.5789 17.0181 18.3405C17.0181 18.0961 17.1404 17.9922 17.3237 17.9922H17.4154C17.5987 17.9922 17.727 18.0961 17.727 18.3405C17.727 18.5789 17.5987 18.6889 17.4154 18.6889H17.3237ZM16.1565 18.3405C16.1565 18.5789 16.2787 18.6889 16.462 18.6889H16.5537C16.737 18.6889 16.8654 18.5789 16.8654 18.3405C16.8654 18.0961 16.737 17.9922 16.5537 17.9922H16.462C16.2787 17.9922 16.1565 18.0961 16.1565 18.3405Z" fill="white"/>
</svg>
