<svg width="20" height="22" viewBox="0 0 20 22" fill="none" xmlns="http://www.w3.org/2000/svg">
<path d="M13.5261 4.35967C13.3078 4.34772 13.0824 4.33414 12.8591 4.32068C12.2606 4.2846 11.6782 4.2495 11.2945 4.24959L11.2622 4.2496L11.23 4.25239C10.7854 4.29087 10.3707 4.46246 10.0334 4.73547L10.017 4.74875L10.0014 4.76293C7.77338 6.78371 3.82292 10.4448 1.63412 12.5893L1.62461 12.5986L1.61543 12.6083C0.619363 13.6561 0.610676 15.2314 1.50457 16.3188L1.53755 16.3589L1.57574 16.3941C2.11312 16.8892 2.66258 17.4099 3.22155 17.9397C4.34786 19.0072 5.5128 20.1112 6.69538 21.1159L6.71658 21.1339L6.73904 21.1502C7.86097 21.9684 9.46345 21.9629 10.5497 21.047L10.5632 21.0356L10.5761 21.0236C12.6368 19.1134 16.7245 15.2637 18.7896 13.2197L18.8031 13.2063L18.8159 13.1922C19.109 12.8712 19.3032 12.4645 19.347 12.016L19.3505 11.9797L19.3505 11.9432C19.3505 11.169 19.2752 9.36198 19.0001 7.8369C18.8576 7.04717 18.7126 6.36046 18.4215 5.85588C18.2628 5.5808 18.0553 5.34637 17.7785 5.16781C17.6065 5.05687 17.4228 4.97719 17.232 4.91941C17.2504 4.83402 17.2667 4.7487 17.2808 4.66354C17.5092 3.29035 17.1886 1.87079 16.0705 0.958135C15.076 0.146309 13.9292 0.13951 12.8719 0.407299C11.9366 0.644178 10.9557 1.12569 10.0574 1.56666L10.0556 1.56752C9.9685 1.61028 9.88217 1.65266 9.79673 1.6944C8.78105 2.19054 7.87671 2.60452 7.0621 2.73653C6.30139 2.85981 5.6851 2.72924 5.13534 2.17013C4.84492 1.87478 4.37007 1.87078 4.07471 2.16119C3.77936 2.45161 3.77536 2.92646 4.06577 3.22181C5.03267 4.20515 6.17917 4.39918 7.30205 4.21721C8.371 4.04399 9.47102 3.5229 10.4551 3.04219L10.6898 2.92736C11.6271 2.46827 12.4656 2.05755 13.2401 1.86139C14.048 1.65678 14.6365 1.72383 15.122 2.12013C15.7071 2.59778 15.969 3.40824 15.8011 4.41747C15.6334 5.42593 15.0393 6.54526 14.0469 7.44294C13.7397 7.7208 13.7159 8.19508 13.9938 8.50227C14.2716 8.80946 14.7459 8.83323 15.0531 8.55536C15.7757 7.90172 16.3443 7.13795 16.7351 6.33802C16.8513 6.36675 16.9209 6.39957 16.9655 6.42834C17.0157 6.46076 17.0661 6.5081 17.1222 6.60535C17.2607 6.84542 17.3728 7.26562 17.5239 8.10323C17.7725 9.4813 17.8475 11.1517 17.8504 11.8986C17.836 11.9892 17.794 12.0826 17.7184 12.1694C15.671 14.1948 11.6279 18.003 9.57065 19.9103C9.04606 20.3426 8.23103 20.3673 7.64339 19.953C6.4986 18.979 5.39592 17.9337 4.2959 16.8909C3.74308 16.3668 3.19082 15.8432 2.63433 15.3298C2.23268 14.8084 2.26128 14.1143 2.69443 13.6504C4.85906 11.5303 8.76826 7.90686 10.9907 5.89068C11.0897 5.81443 11.2069 5.76547 11.332 5.7497C11.6668 5.75173 12.1573 5.78128 12.7119 5.81469C12.9467 5.82884 13.1931 5.84369 13.444 5.85743C13.8576 5.88007 14.2113 5.56315 14.2339 5.14955C14.2566 4.73596 13.9397 4.38232 13.5261 4.35967Z" fill="white" fill-opacity="0.5"/>
<path d="M7.57767 11.7857C7.57767 11.3715 7.91346 11.0357 8.32767 11.0357L8.33697 11.0357C8.75118 11.0357 9.08697 11.3715 9.08697 11.7857C9.08697 12.1999 8.75118 12.5357 8.33697 12.5357L8.32767 12.5357C7.91346 12.5357 7.57767 12.1999 7.57767 11.7857Z" fill="white" fill-opacity="0.5"/>
<path d="M5.07907 14.2857C5.07907 13.8715 5.41486 13.5357 5.82907 13.5357L10.8291 13.5357C11.2433 13.5357 11.5791 13.8715 11.5791 14.2857C11.5791 14.6999 11.2433 15.0357 10.8291 15.0357L5.82907 15.0357C5.41486 15.0357 5.07907 14.6999 5.07907 14.2857Z" fill="white" fill-opacity="0.5"/>
<path d="M7.57997 16.7857C7.57997 16.3715 7.91576 16.0357 8.32997 16.0357L8.33937 16.0357C8.75358 16.0357 9.08937 16.3715 9.08937 16.7857C9.08937 17.1999 8.75358 17.5357 8.33937 17.5357L8.32997 17.5357C7.91576 17.5357 7.57997 17.1999 7.57997 16.7857Z" fill="white" fill-opacity="0.5"/>
</svg>
