<svg xmlns="http://www.w3.org/2000/svg" viewBox="0 0 48 48"><defs><style>.cls-1{fill:#8491c1;}.cls-2{fill:#6c80ad;}.cls-3{fill:#d3dbef;}.cls-4{fill:#bfcae2;}.cls-5{fill:#505572;}.cls-6{fill:#bf7267;}.cls-7{fill:#cc8679;}.cls-8{fill:#231f20;}</style></defs><title>Box Save</title><g id="Box_Save" data-name="Box Save"><rect class="cls-1" x="2" y="2" width="44" height="40" rx="2" ry="2"/><path class="cls-2" d="M44,2H41a2,2,0,0,1,2,2V40a2,2,0,0,1-2,2h3a2,2,0,0,0,2-2V4A2,2,0,0,0,44,2Z"/><rect class="cls-3" x="6" y="6" width="36" height="32"/><rect class="cls-4" x="39" y="6" width="3" height="32"/><path class="cls-5" d="M6,42h5a0,0,0,0,1,0,0v3a1,1,0,0,1-1,1H7a1,1,0,0,1-1-1V42A0,0,0,0,1,6,42Z"/><path class="cls-5" d="M37,42h5a0,0,0,0,1,0,0v3a1,1,0,0,1-1,1H38a1,1,0,0,1-1-1V42A0,0,0,0,1,37,42Z"/><path class="cls-6" d="M19.2214,22A2.9776,2.9776,0,0,1,20,20H15a2,2,0,0,0,0,4h5A2.9776,2.9776,0,0,1,19.2214,22Z"/><path class="cls-6" d="M33,20H28a2.9581,2.9581,0,0,1,0,4h5a2,2,0,0,0,0-4Z"/><path class="cls-6" d="M24,26.7786A2.9776,2.9776,0,0,1,22,26v5a2,2,0,0,0,4,0V26A2.9776,2.9776,0,0,1,24,26.7786Z"/><path class="cls-6" d="M24,17.2214A2.9776,2.9776,0,0,1,26,18V13a2,2,0,0,0-4,0v5A2.9776,2.9776,0,0,1,24,17.2214Z"/><path class="cls-7" d="M24,15a7,7,0,1,0,7,7A7,7,0,0,0,24,15Zm0,10a3,3,0,1,1,3-3A3,3,0,0,1,24,25Z"/><path class="cls-8" d="M44,1H4A3.0033,3.0033,0,0,0,1,4V40a3.0033,3.0033,0,0,0,3,3H5v2a2.002,2.002,0,0,0,2,2h3a2.002,2.002,0,0,0,2-2V43H36v2a2.002,2.002,0,0,0,2,2h3a2.002,2.002,0,0,0,2-2V43h1a3.0033,3.0033,0,0,0,3-3V4A3.0033,3.0033,0,0,0,44,1ZM10.0015,45H7V43h3Zm31,0H38V43h3ZM45,40a1.0013,1.0013,0,0,1-1,1H4a1.0013,1.0013,0,0,1-1-1V4A1.0013,1.0013,0,0,1,4,3H44a1.0013,1.0013,0,0,1,1,1Z"/><path class="cls-8" d="M42,5H6A1,1,0,0,0,5,6V38a1,1,0,0,0,1,1H42a1,1,0,0,0,1-1V6A1,1,0,0,0,42,5ZM41,37H7V7H41Z"/><path class="cls-8" d="M15,25h1.589A8.038,8.038,0,0,0,21,29.411V31a3,3,0,0,0,6,0V29.411A8.038,8.038,0,0,0,31.411,25H33a3,3,0,0,0,0-6H31.411A8.038,8.038,0,0,0,27,14.589V13a3,3,0,0,0-6,0v1.589A8.038,8.038,0,0,0,16.589,19H15a3,3,0,0,0,0,6Zm10,6a1,1,0,0,1-2,0V29.9305a7.2333,7.2333,0,0,0,2,0Zm8-10a1,1,0,0,1,0,2H31.9305a7.2333,7.2333,0,0,0,0-2ZM23,13a1,1,0,0,1,2,0v1.0695a7.2333,7.2333,0,0,0-2,0Zm1,3a6,6,0,1,1-6,6A6.0066,6.0066,0,0,1,24,16Zm-9,5h1.0695a7.2333,7.2333,0,0,0,0,2H15a1,1,0,0,1,0-2Z"/><path class="cls-8" d="M24,26a4,4,0,1,0-4-4A4.0046,4.0046,0,0,0,24,26Zm0-6a2,2,0,1,1-2,2A2.002,2.002,0,0,1,24,20Z"/></g></svg>