<svg width="20" height="20" viewBox="0 0 20 20" fill="none" xmlns="http://www.w3.org/2000/svg">
<path fill-rule="evenodd" clip-rule="evenodd" d="M9.16675 1.04166C4.67943 1.04166 1.04175 4.67934 1.04175 9.16666C1.04175 13.654 4.67943 17.2917 9.16675 17.2917C11.1854 17.2917 13.0322 16.5555 14.4531 15.3369L17.8915 18.7753C18.1356 19.0193 18.5313 19.0193 18.7754 18.7753C19.0194 18.5312 19.0194 18.1355 18.7754 17.8914L15.337 14.453C16.5556 13.0321 17.2917 11.1853 17.2917 9.16666C17.2917 4.67934 13.6541 1.04166 9.16675 1.04166ZM2.29175 9.16666C2.29175 5.3697 5.36979 2.29166 9.16675 2.29166C12.9637 2.29166 16.0417 5.3697 16.0417 9.16666C16.0417 12.9636 12.9637 16.0417 9.16675 16.0417C5.36979 16.0417 2.29175 12.9636 2.29175 9.16666Z" fill="#161616"/>
</svg>
