<svg width="16" height="16" viewBox="0 0 16 16" fill="none" xmlns="http://www.w3.org/2000/svg">
<path fill-rule="evenodd" clip-rule="evenodd" d="M11.7252 2.57157C10.8682 2.72752 9.71717 3.11847 8.10932 3.66659L5.94187 4.40548C4.70695 4.82647 3.82321 5.12858 3.23122 5.40778C2.9363 5.54688 2.74746 5.66528 2.63287 5.76728C2.52441 5.86384 2.51069 5.9198 2.50744 5.94186C2.4917 6.04869 2.50072 6.16268 2.53667 6.27465C2.54884 6.31256 2.58592 6.38332 2.7238 6.48432C2.86525 6.58793 3.08186 6.70046 3.40122 6.82625C4.04274 7.07895 4.97855 7.34048 6.27895 7.70296C6.30781 7.711 6.33632 7.71892 6.3645 7.72674C6.85176 7.86201 7.2376 7.96913 7.54008 8.2205C7.62704 8.29277 7.70721 8.37294 7.77948 8.4599C8.03085 8.76238 8.13797 9.14822 8.27324 9.63548C8.28106 9.66366 8.28898 9.69217 8.29702 9.72103C8.6595 11.0214 8.92104 11.9572 9.17373 12.5988C9.29952 12.9181 9.41205 13.1347 9.51566 13.2762C9.61666 13.4141 9.68742 13.4511 9.72533 13.4633C9.83731 13.4993 9.95129 13.5083 10.0581 13.4925C10.0802 13.4893 10.1361 13.4756 10.2327 13.3671C10.3347 13.2525 10.4531 13.0637 10.5922 12.7688C10.8714 12.1768 11.1735 11.293 11.5945 10.0581L12.3334 7.89065C12.8815 6.28281 13.2725 5.13178 13.4284 4.27475C13.5845 3.41673 13.4725 3.02306 13.2247 2.77527C12.9769 2.52749 12.5833 2.41543 11.7252 2.57157ZM11.5462 1.58772C12.4936 1.41532 13.3236 1.45998 13.9318 2.06817C14.54 2.67635 14.5847 3.50638 14.4123 4.45378C14.2413 5.39325 13.8248 6.61506 13.295 8.16895L12.5292 10.4154C12.1225 11.6084 11.8029 12.5461 11.4967 13.1953C11.3416 13.5242 11.1749 13.8126 10.9796 14.032C10.7788 14.2576 10.5252 14.4345 10.2038 14.4819C9.94135 14.5205 9.67304 14.4968 9.41964 14.4154C9.1178 14.3185 8.88884 14.1127 8.70892 13.8671C8.53162 13.625 8.38204 13.3175 8.2433 12.9652C7.96925 12.2695 7.69433 11.2832 7.34272 10.0217L7.33375 9.98953C7.16221 9.37412 7.10735 9.21571 7.0104 9.09905C6.97736 9.0593 6.94068 9.02262 6.90093 8.98958C6.78427 8.89263 6.62586 8.83777 6.01045 8.66623L5.97823 8.65726C4.71678 8.30565 3.73049 8.03073 3.03473 7.75668C2.6825 7.61794 2.37496 7.46836 2.13289 7.29106C1.88726 7.11114 1.68144 6.88218 1.58453 6.58034C1.50318 6.32694 1.47945 6.05864 1.51811 5.79616C1.56544 5.47481 1.74242 5.22114 1.96796 5.02036C2.18737 4.82503 2.47583 4.65841 2.80465 4.50333C3.45389 4.19712 4.39161 3.87746 5.58463 3.47076L7.83101 2.70496C9.38491 2.17521 10.6067 1.75868 11.5462 1.58772Z" fill="#161616"/>
</svg>
