<svg width="32" height="32" viewBox="0 0 32 32" fill="none" xmlns="http://www.w3.org/2000/svg">
<path d="M0 4C0 1.79086 1.79086 0 4 0H28C30.2091 0 32 1.79086 32 4V28C32 30.2091 30.2091 32 28 32H4C1.79086 32 0 30.2091 0 28V4Z" fill="#F3F4F6"/>
<path fill-rule="evenodd" clip-rule="evenodd" d="M18 8.75C13.8987 8.75 10.75 11.6392 10.75 15V15.2657C10.8794 15.2489 11.0171 15.245 11.1636 15.2568C11.5213 15.2858 11.8628 15.442 12.2257 15.6081L12.3098 15.6465L12.3752 15.6762C12.6479 15.7999 12.915 15.921 13.1281 16.1063C13.7509 16.648 13.7504 17.363 13.75 17.7764V22.224C13.7504 22.6374 13.7509 23.3524 13.1281 23.8941C12.9152 24.0792 12.6483 24.2003 12.3759 24.3239L12.3098 24.3538L12.2257 24.3923C11.8631 24.5582 11.5211 24.7146 11.1636 24.7436C10.1186 24.8281 9.53321 24.1152 9.18929 23.6964L9.1612 23.6623C9.07403 23.5564 8.96671 23.432 8.85082 23.2977C8.63894 23.0522 8.39841 22.7735 8.20005 22.5139C7.8724 22.0851 7.54407 21.5713 7.38098 20.9743C7.20634 20.335 7.20634 19.6654 7.38098 19.0261C7.49932 18.5929 7.71345 18.2106 7.99611 17.8093C8.26965 17.421 8.6381 16.9735 9.09366 16.4201L9.11312 16.3965C9.13166 16.374 9.15109 16.3501 9.17141 16.3251C9.19608 16.2947 9.22257 16.2621 9.25 16.2289V15C9.25 10.6288 13.2647 7.25 18 7.25C22.7353 7.25 26.75 10.6288 26.75 15V16.2238C26.7704 16.2496 26.79 16.2744 26.8079 16.2971L26.8105 16.3004C26.8431 16.3417 26.8705 16.3764 26.8869 16.3963L26.9054 16.4188C27.3614 16.9726 27.7301 17.4205 28.0039 17.8091C28.2865 18.2104 28.5007 18.5927 28.619 19.0259C28.7936 19.6652 28.7936 20.3348 28.619 20.9741C28.4559 21.5711 28.1276 22.0849 27.7999 22.5137C27.6016 22.7733 27.3611 23.052 27.1492 23.2975C27.0333 23.4318 26.926 23.5562 26.8388 23.6621L26.7811 23.7323C26.7692 23.7469 26.7572 23.7614 26.7453 23.776C26.7068 24.8868 26.4331 25.7996 25.9294 26.5281C25.3839 27.3171 24.6175 27.8194 23.7633 28.1397C22.1351 28.7503 20.0224 28.7502 18.0943 28.75H18C17.5858 28.75 17.25 28.4142 17.25 28C17.25 27.5858 17.5858 27.25 18 27.25C20.0467 27.25 21.8915 27.2397 23.2367 26.7352C23.8825 26.4931 24.3661 26.1516 24.6956 25.675C24.867 25.4271 25.0098 25.1236 25.1076 24.7472C25.0174 24.7519 24.9268 24.7507 24.8364 24.7434C24.4791 24.7144 24.1379 24.5584 23.7753 24.3926L23.6902 24.3536L23.625 24.3243C23.2688 24.1652 22.5973 23.8652 22.3415 23.1081C22.2485 22.8327 22.2492 22.5384 22.2499 22.2645L22.25 22.1955V17.8044L22.2499 17.7355C22.2492 17.4616 22.2485 17.1672 22.3415 16.8919C22.5973 16.1348 23.2688 15.8348 23.625 15.6757C23.6481 15.6653 23.6699 15.6556 23.6902 15.6463L23.7742 15.6079C24.1371 15.4419 24.4787 15.2856 24.8364 15.2566C24.9745 15.2455 25.1132 15.2484 25.25 15.2653V15C25.25 11.6392 22.1013 8.75 18 8.75ZM25.3824 16.9256C25.3213 16.8611 25.2794 16.8293 25.2509 16.8133C25.1684 16.767 25.0648 16.7431 24.9573 16.7518C24.8977 16.7566 24.8152 16.7822 24.312 17.0114C24.0922 17.1115 23.9688 17.1691 23.8737 17.2381C23.8011 17.2907 23.7777 17.3275 23.7628 17.3713C23.7616 17.3766 23.7579 17.3963 23.7551 17.4425C23.7503 17.5198 23.75 17.6227 23.75 17.8044V22.1955C23.75 22.3773 23.7503 22.4802 23.7551 22.5575C23.7579 22.6037 23.7616 22.6234 23.7628 22.6287C23.7777 22.6725 23.8011 22.7093 23.8737 22.7619C23.9688 22.8309 24.0922 22.8885 24.312 22.9886C24.8152 23.2178 24.8977 23.2434 24.9573 23.2482C25.0648 23.2569 25.1684 23.233 25.2509 23.1867C25.2888 23.1654 25.3398 23.1228 25.6808 22.7087C25.8165 22.5437 25.9432 22.3976 26.0654 22.2568L26.0733 22.2477C26.2561 22.0368 26.4292 21.8371 26.6081 21.603C26.8882 21.2364 27.0834 20.9033 27.172 20.5788C27.276 20.1983 27.276 19.8017 27.172 19.4212C27.1178 19.2226 27.0098 19.0026 26.7776 18.673C26.5402 18.3359 26.2077 17.9313 25.7289 17.3497C25.6603 17.2665 25.6154 17.2086 25.5762 17.158C25.5478 17.1214 25.5224 17.0886 25.4932 17.0528C25.4517 17.0147 25.4145 16.9721 25.3824 16.9256ZM10.741 16.8438C10.6074 16.9438 10.482 17.0938 10.2711 17.3499C9.7923 17.9315 9.45981 18.3361 9.2224 18.6732C8.99022 19.0028 8.8822 19.2228 8.82795 19.4214C8.72402 19.8019 8.72402 20.1985 8.82795 20.579C8.9166 20.9035 9.1118 21.2366 9.39191 21.6032C9.57173 21.8384 9.74561 22.039 9.92946 22.251L9.93031 22.252C10.0538 22.3943 10.1819 22.5421 10.3192 22.7089C10.5142 22.9457 10.6358 23.0821 10.7566 23.168C10.846 23.2316 10.9215 23.2582 11.0427 23.2484C11.1023 23.2436 11.1848 23.218 11.688 22.9888C12.0716 22.8141 12.1179 22.7847 12.1437 22.7622C12.1885 22.7233 12.2068 22.6911 12.2218 22.6306C12.2438 22.5413 12.25 22.4228 12.25 22.1957V17.8046C12.25 17.5776 12.2438 17.459 12.2218 17.3698C12.2068 17.3093 12.1885 17.2771 12.1437 17.2382C12.1179 17.2156 12.0716 17.1863 11.688 17.0116C11.1848 16.7824 11.1023 16.7568 11.0427 16.7519C10.9188 16.7419 10.8397 16.77 10.741 16.8438Z" fill="#161616"/>
</svg>
