<svg width="32" height="32" viewBox="0 0 32 32" fill="none" xmlns="http://www.w3.org/2000/svg">
<path d="M0 4C0 1.79086 1.79086 0 4 0H28C30.2091 0 32 1.79086 32 4V28C32 30.2091 30.2091 32 28 32H4C1.79086 32 0 30.2091 0 28V4Z" fill="#F3F4F6"/>
<path fill-rule="evenodd" clip-rule="evenodd" d="M16.0001 8.29166C12.5824 8.29166 9.95841 10.6993 9.95841 13.5V13.7214C10.0662 13.7074 10.181 13.7041 10.3031 13.714C10.6012 13.7381 10.8857 13.8684 11.1881 14.0067L11.2582 14.0388L11.3127 14.0635C11.54 14.1666 11.7626 14.2675 11.9401 14.4219C12.4592 14.8733 12.4587 15.4691 12.4584 15.8136V19.52C12.4587 19.8645 12.4592 20.4603 11.9401 20.9117C11.7627 21.066 11.5404 21.1669 11.3133 21.2699L11.2582 21.2948L11.1882 21.3269C10.886 21.4651 10.601 21.5955 10.3031 21.6197C9.43223 21.6901 8.94442 21.096 8.65782 20.747L8.63441 20.7186C8.56177 20.6303 8.47234 20.5267 8.37576 20.4147C8.1992 20.2102 7.99876 19.9779 7.83346 19.7616C7.56041 19.4042 7.28681 18.9761 7.15089 18.4786C7.00537 17.9458 7.00537 17.3878 7.15089 16.8551C7.24952 16.4941 7.42796 16.1755 7.66351 15.8411C7.89145 15.5175 8.1985 15.1445 8.57813 14.6834L8.59435 14.6637C8.6098 14.645 8.62599 14.625 8.64292 14.6042C8.66348 14.5789 8.68556 14.5517 8.70841 14.524V13.5C8.70841 9.85736 12.054 7.04166 16.0001 7.04166C19.9462 7.04166 23.2917 9.85736 23.2917 13.5V14.5198C23.3088 14.5413 23.3251 14.562 23.34 14.5809L23.3422 14.5836C23.3694 14.6181 23.3922 14.647 23.4058 14.6636L23.4213 14.6823C23.8013 15.1438 24.1085 15.5171 24.3367 15.8409C24.5722 16.1753 24.7507 16.4939 24.8493 16.8549C24.9948 17.3877 24.9948 17.9457 24.8493 18.4784C24.7133 18.9759 24.4398 19.4041 24.1667 19.7614C24.0014 19.9777 23.801 20.21 23.6244 20.4146C23.5278 20.5265 23.4384 20.6302 23.3658 20.7184L23.3177 20.7769C23.3077 20.7891 23.2978 20.8012 23.2878 20.8133C23.2558 21.739 23.0277 22.4996 22.6079 23.1067C22.1533 23.7642 21.5147 24.1828 20.8028 24.4497C19.446 24.9586 17.6854 24.9585 16.0787 24.9583H16.0001C15.6549 24.9583 15.3751 24.6785 15.3751 24.3333C15.3751 23.9882 15.6549 23.7083 16.0001 23.7083C17.7057 23.7083 19.243 23.6997 20.364 23.2793C20.9022 23.0776 21.3052 22.793 21.5797 22.3958C21.7226 22.1892 21.8416 21.9363 21.9231 21.6227C21.8479 21.6266 21.7724 21.6256 21.6971 21.6195C21.3993 21.5953 21.115 21.4653 20.8128 21.3272L20.7419 21.2947L20.6876 21.2702C20.3908 21.1377 19.8312 20.8877 19.618 20.2567C19.5405 20.0272 19.5411 19.782 19.5417 19.5537L19.5418 19.4962V15.837L19.5417 15.7796C19.5411 15.5513 19.5405 15.306 19.618 15.0766C19.8312 14.4457 20.3908 14.1956 20.6876 14.063C20.7068 14.0544 20.725 14.0463 20.7419 14.0386L20.8119 14.0066C21.1143 13.8682 21.399 13.738 21.6971 13.7139C21.8121 13.7045 21.9277 13.707 22.0417 13.721V13.5C22.0417 10.6993 19.4178 8.29166 16.0001 8.29166ZM22.1521 15.1046C22.1011 15.0509 22.0663 15.0244 22.0425 15.0111C21.9738 14.9725 21.8874 14.9525 21.7978 14.9598C21.7482 14.9638 21.6794 14.9852 21.2601 15.1762C21.0769 15.2596 20.9741 15.3076 20.8948 15.3651C20.8343 15.4089 20.8148 15.4396 20.8024 15.4761C20.8014 15.4805 20.7983 15.4969 20.796 15.5354C20.792 15.5998 20.7918 15.6856 20.7918 15.837V19.4962C20.7918 19.6477 20.792 19.7335 20.796 19.7979C20.7983 19.8364 20.8014 19.8528 20.8024 19.8572C20.8148 19.8937 20.8343 19.9244 20.8948 19.9682C20.9741 20.0257 21.0769 20.0737 21.2601 20.1572C21.6794 20.3482 21.7482 20.3695 21.7978 20.3735C21.8874 20.3807 21.9738 20.3608 22.0425 20.3222C22.0741 20.3045 22.1166 20.269 22.4008 19.9239C22.5138 19.7864 22.6194 19.6647 22.7212 19.5473L22.7278 19.5397C22.8801 19.364 23.0244 19.1976 23.1735 19.0025C23.4069 18.697 23.5696 18.4194 23.6434 18.149C23.7301 17.8319 23.7301 17.5014 23.6434 17.1843C23.5983 17.0188 23.5083 16.8355 23.3148 16.5608C23.1169 16.2799 22.8398 15.9427 22.4408 15.4581C22.3837 15.3887 22.3463 15.3405 22.3136 15.2983C22.2899 15.2678 22.2688 15.2405 22.2444 15.2107C22.2098 15.1789 22.1788 15.1434 22.1521 15.1046ZM9.95092 15.0365C9.83958 15.1198 9.73508 15.2448 9.55937 15.4582C9.16033 15.9429 8.88326 16.2801 8.68541 16.561C8.49193 16.8357 8.40191 17.019 8.35671 17.1845C8.2701 17.5016 8.2701 17.8321 8.35671 18.1492C8.43058 18.4196 8.59325 18.6972 8.82667 19.0027C8.97653 19.1987 9.12143 19.3658 9.27463 19.5425L9.27534 19.5433C9.37824 19.6619 9.48501 19.785 9.59943 19.9241C9.76192 20.1214 9.86323 20.2351 9.96387 20.3067C10.0384 20.3597 10.1013 20.3818 10.2023 20.3737C10.252 20.3697 10.3207 20.3483 10.7401 20.1573C11.0598 20.0117 11.0983 19.9872 11.1199 19.9685C11.1572 19.9361 11.1724 19.9092 11.1849 19.8588C11.2033 19.7844 11.2084 19.6857 11.2084 19.4964V15.8372C11.2084 15.648 11.2033 15.5492 11.1849 15.4748C11.1724 15.4244 11.1572 15.3976 11.1199 15.3652C11.0983 15.3463 11.0598 15.3219 10.7401 15.1763C10.3207 14.9853 10.252 14.964 10.2023 14.9599C10.099 14.9516 10.0331 14.975 9.95092 15.0365Z" fill="#161616"/>
</svg>
