<svg width="21" height="22" viewBox="0 0 21 22" fill="none" xmlns="http://www.w3.org/2000/svg">
<path d="M3.82936 10.6645C4.0146 10.294 4.4651 10.1438 4.83559 10.3291L6.83559 11.3291C7.20607 11.5143 7.35624 11.9648 7.171 12.3353C6.98576 12.7058 6.53525 12.856 6.16477 12.6707L4.16477 11.6707C3.79428 11.4855 3.64411 11.035 3.82936 10.6645Z" fill="white" fill-opacity="0.5"/>
<path fill-rule="evenodd" clip-rule="evenodd" d="M0.779388 5.79119C0.760347 5.69926 0.750015 5.60223 0.750014 5.49974C0.750015 4.79769 1.23494 4.35144 1.68139 4.04988C2.12729 3.74869 2.76856 3.43843 3.52389 3.07298L6.66524 1.55288C8.30701 0.757847 9.35627 0.24974 10.5 0.249739C11.6438 0.249738 12.693 0.757847 14.3348 1.55288L17.4761 3.07298C18.2315 3.43843 18.8727 3.74869 19.3186 4.04988C19.7651 4.35144 20.25 4.79769 20.25 5.49974C20.25 5.60223 20.2397 5.69927 20.2206 5.7912C20.2398 5.8574 20.25 5.92737 20.25 5.99974L20.25 16.161C20.25 17.2814 19.4327 18.0266 18.4267 18.6302C17.4083 19.2413 15.9102 19.8741 14.0171 20.6738L13.8059 20.7631C12.3868 21.363 11.4721 21.7497 10.5 21.7497C9.52797 21.7497 8.61318 21.363 7.19414 20.7631L6.98291 20.6738C5.08984 19.8742 3.59172 19.2413 2.57334 18.6302C1.56736 18.0266 0.750014 17.2814 0.750014 16.161L0.750013 5.99974C0.750013 5.92737 0.760262 5.8574 0.779388 5.79119ZM2.25001 7.28865C2.61552 7.487 3.04698 7.69575 3.52391 7.9265L6.66524 9.4466C7.94508 10.0664 8.86486 10.5118 9.75001 10.678L9.75001 20.1379C9.27112 20.0061 8.64802 19.7489 7.62879 19.3183C5.65997 18.4866 4.26129 17.8938 3.34515 17.344C2.40549 16.7802 2.25001 16.4231 2.25001 16.161L2.25001 7.28865ZM11.25 10.678C12.1352 10.5118 13.0549 10.0664 14.3348 9.4466L17.4761 7.92649C17.953 7.69576 18.3845 7.48699 18.75 7.28865L18.75 16.161C18.75 16.4231 18.5945 16.7802 17.6549 17.344C16.7387 17.8938 15.3401 18.4866 13.3712 19.3183C12.352 19.7489 11.7289 20.0061 11.25 20.1379L11.25 10.678ZM7.15261 2.98347C9.02045 2.07964 9.74243 1.74974 10.5 1.74974C11.2576 1.74974 11.9796 2.07964 13.8474 2.98347L13.8518 2.98558L5.44424 7.18935L4.23141 6.60247C3.40711 6.2036 2.86605 5.93966 2.52099 5.70659C2.3726 5.60636 2.30091 5.53844 2.26773 5.49974C2.30091 5.46104 2.3726 5.39312 2.52099 5.29289C2.86605 5.05981 3.40711 4.79588 4.23141 4.39701L7.15261 2.98347ZM7.14876 8.01414L7.15261 8.01601C9.02045 8.91984 9.74243 9.24974 10.5 9.24974C11.2576 9.24974 11.9796 8.91984 13.8474 8.01601L16.7686 6.60247C17.5929 6.2036 18.134 5.93966 18.479 5.70659C18.6274 5.60636 18.6991 5.53844 18.7323 5.49974C18.6991 5.46104 18.6274 5.39312 18.479 5.29289C18.134 5.05982 17.5929 4.79588 16.7686 4.397L15.5563 3.81037L7.14876 8.01414Z" fill="white" fill-opacity="0.5"/>
</svg>
