<svg width="14" height="14" viewBox="0 0 14 14" fill="none" xmlns="http://www.w3.org/2000/svg">
<path d="M6.66071 6.83413C6.61441 6.83339 6.56086 6.83337 6.49481 6.83337C6.21867 6.83337 5.99481 6.60951 5.99481 6.33337C5.99481 6.05722 6.21867 5.83337 6.49481 5.83337L6.51778 5.83336C6.65452 5.83331 6.80238 5.83325 6.92719 5.85003C7.07341 5.86969 7.2602 5.92024 7.4174 6.07744C7.5746 6.23464 7.62516 6.42144 7.64482 6.56765C7.6616 6.69246 7.66154 6.84033 7.66149 6.97707L7.66148 10.3334C7.66148 10.6095 7.43762 10.8334 7.16148 10.8334C6.88534 10.8334 6.66148 10.6095 6.66148 10.3334V7.00003C6.66148 6.93398 6.66146 6.88044 6.66071 6.83413Z" fill="#161616"/>
<path d="M6.99481 3.66669C6.62662 3.66669 6.32815 3.96516 6.32815 4.33335C6.32815 4.70154 6.62662 5.00002 6.99481 5.00002H7.0008C7.36899 5.00002 7.66747 4.70154 7.66747 4.33335C7.66747 3.96516 7.36899 3.66669 7.0008 3.66669H6.99481Z" fill="#161616"/>
<path fill-rule="evenodd" clip-rule="evenodd" d="M6.9619 0.166687H7.03814C8.49861 0.166678 9.64573 0.166671 10.5413 0.287083C11.4591 0.410474 12.1873 0.668497 12.7594 1.24063C13.3315 1.81276 13.5896 2.54093 13.713 3.4587C13.8334 4.35431 13.8334 5.50142 13.8334 6.96189V7.03813C13.8334 8.49859 13.8334 9.64573 13.713 10.5413C13.5896 11.4591 13.3315 12.1873 12.7594 12.7594C12.1873 13.3315 11.4591 13.5896 10.5413 13.713C9.64573 13.8334 8.49862 13.8334 7.03815 13.8334H6.96191C5.50145 13.8334 4.35431 13.8334 3.4587 13.713C2.54093 13.5896 1.81276 13.3315 1.24063 12.7594C0.668497 12.1873 0.410474 11.4591 0.287083 10.5413C0.166671 9.64573 0.166678 8.49861 0.166687 7.03814V6.9619C0.166678 5.50143 0.166671 4.35431 0.287083 3.4587C0.410474 2.54093 0.668497 1.81276 1.24063 1.24063C1.81276 0.668497 2.54093 0.410474 3.4587 0.287083C4.35431 0.166671 5.50143 0.166678 6.9619 0.166687ZM3.59195 1.27817C2.78507 1.38665 2.3031 1.59237 1.94774 1.94774C1.59237 2.3031 1.38665 2.78507 1.27817 3.59195C1.16775 4.41322 1.16669 5.4931 1.16669 7.00002C1.16669 8.50694 1.16775 9.58682 1.27817 10.4081C1.38665 11.215 1.59237 11.6969 1.94774 12.0523C2.3031 12.4077 2.78507 12.6134 3.59195 12.7219C4.41322 12.8323 5.4931 12.8334 7.00002 12.8334C8.50694 12.8334 9.58682 12.8323 10.4081 12.7219C11.215 12.6134 11.6969 12.4077 12.0523 12.0523C12.4077 11.6969 12.6134 11.215 12.7219 10.4081C12.8323 9.58682 12.8334 8.50694 12.8334 7.00002C12.8334 5.4931 12.8323 4.41322 12.7219 3.59195C12.6134 2.78507 12.4077 2.3031 12.0523 1.94774C11.6969 1.59237 11.215 1.38665 10.4081 1.27817C9.58682 1.16775 8.50694 1.16669 7.00002 1.16669C5.4931 1.16669 4.41322 1.16775 3.59195 1.27817Z" fill="#161616"/>
<path d="M6.66071 6.83413C6.61441 6.83339 6.56086 6.83337 6.49481 6.83337C6.21867 6.83337 5.99481 6.60951 5.99481 6.33337C5.99481 6.05722 6.21867 5.83337 6.49481 5.83337L6.51778 5.83336C6.65452 5.83331 6.80238 5.83325 6.92719 5.85003C7.07341 5.86969 7.2602 5.92024 7.4174 6.07744C7.5746 6.23464 7.62516 6.42144 7.64482 6.56765C7.6616 6.69246 7.66154 6.84033 7.66149 6.97707L7.66148 10.3334C7.66148 10.6095 7.43762 10.8334 7.16148 10.8334C6.88534 10.8334 6.66148 10.6095 6.66148 10.3334V7.00003C6.66148 6.93398 6.66146 6.88044 6.66071 6.83413Z" stroke="#161616"/>
<path d="M6.99481 3.66669C6.62662 3.66669 6.32815 3.96516 6.32815 4.33335C6.32815 4.70154 6.62662 5.00002 6.99481 5.00002H7.0008C7.36899 5.00002 7.66747 4.70154 7.66747 4.33335C7.66747 3.96516 7.36899 3.66669 7.0008 3.66669H6.99481Z" stroke="#161616"/>
<path fill-rule="evenodd" clip-rule="evenodd" d="M6.9619 0.166687H7.03814C8.49861 0.166678 9.64573 0.166671 10.5413 0.287083C11.4591 0.410474 12.1873 0.668497 12.7594 1.24063C13.3315 1.81276 13.5896 2.54093 13.713 3.4587C13.8334 4.35431 13.8334 5.50142 13.8334 6.96189V7.03813C13.8334 8.49859 13.8334 9.64573 13.713 10.5413C13.5896 11.4591 13.3315 12.1873 12.7594 12.7594C12.1873 13.3315 11.4591 13.5896 10.5413 13.713C9.64573 13.8334 8.49862 13.8334 7.03815 13.8334H6.96191C5.50145 13.8334 4.35431 13.8334 3.4587 13.713C2.54093 13.5896 1.81276 13.3315 1.24063 12.7594C0.668497 12.1873 0.410474 11.4591 0.287083 10.5413C0.166671 9.64573 0.166678 8.49861 0.166687 7.03814V6.9619C0.166678 5.50143 0.166671 4.35431 0.287083 3.4587C0.410474 2.54093 0.668497 1.81276 1.24063 1.24063C1.81276 0.668497 2.54093 0.410474 3.4587 0.287083C4.35431 0.166671 5.50143 0.166678 6.9619 0.166687ZM3.59195 1.27817C2.78507 1.38665 2.3031 1.59237 1.94774 1.94774C1.59237 2.3031 1.38665 2.78507 1.27817 3.59195C1.16775 4.41322 1.16669 5.4931 1.16669 7.00002C1.16669 8.50694 1.16775 9.58682 1.27817 10.4081C1.38665 11.215 1.59237 11.6969 1.94774 12.0523C2.3031 12.4077 2.78507 12.6134 3.59195 12.7219C4.41322 12.8323 5.4931 12.8334 7.00002 12.8334C8.50694 12.8334 9.58682 12.8323 10.4081 12.7219C11.215 12.6134 11.6969 12.4077 12.0523 12.0523C12.4077 11.6969 12.6134 11.215 12.7219 10.4081C12.8323 9.58682 12.8334 8.50694 12.8334 7.00002C12.8334 5.4931 12.8323 4.41322 12.7219 3.59195C12.6134 2.78507 12.4077 2.3031 12.0523 1.94774C11.6969 1.59237 11.215 1.38665 10.4081 1.27817C9.58682 1.16775 8.50694 1.16669 7.00002 1.16669C5.4931 1.16669 4.41322 1.16775 3.59195 1.27817Z" stroke="#161616"/>
</svg>
