<svg width="18" height="18" viewBox="0 0 18 18" fill="none" xmlns="http://www.w3.org/2000/svg">
<path fill-rule="evenodd" clip-rule="evenodd" d="M8.9998 0.0416641C6.58356 0.0416641 4.6248 2.00042 4.6248 4.41666C4.6248 6.83291 6.58356 8.79166 8.9998 8.79166C11.416 8.79166 13.3748 6.83291 13.3748 4.41666C13.3748 2.00042 11.416 0.0416641 8.9998 0.0416641ZM5.8748 4.41666C5.8748 2.69077 7.27391 1.29166 8.9998 1.29166C10.7257 1.29166 12.1248 2.69077 12.1248 4.41666C12.1248 6.14255 10.7257 7.54166 8.9998 7.54166C7.27391 7.54166 5.8748 6.14255 5.8748 4.41666Z" fill="#161616"/>
<path fill-rule="evenodd" clip-rule="evenodd" d="M14.1905 11.566C14.055 11.4895 13.9353 11.422 13.8384 11.3643C10.8767 9.60078 7.12321 9.60078 4.1615 11.3643C4.06457 11.422 3.94485 11.4896 3.80929 11.566C3.21528 11.9012 2.31735 12.4078 1.70221 13.0099C1.31749 13.3864 0.951947 13.8827 0.885492 14.4906C0.81482 15.1372 1.09687 15.7439 1.66272 16.283C2.63893 17.213 3.81042 17.9583 5.32567 17.9583H12.6742C14.1895 17.9583 15.361 17.213 16.3372 16.283C16.903 15.7439 17.1851 15.1372 17.1144 14.4906C17.0479 13.8827 16.6824 13.3864 16.2977 13.0099C15.6825 12.4078 14.7845 11.9011 14.1905 11.566ZM4.80102 12.4383C7.36867 10.9094 10.6312 10.9094 13.1989 12.4383C13.3388 12.5216 13.4921 12.6086 13.6527 12.6997C14.2465 13.0366 14.9399 13.43 15.4233 13.9032C15.7234 14.1969 15.8513 14.4392 15.8718 14.6265C15.8881 14.7751 15.8505 15.0202 15.475 15.378C14.6117 16.2003 13.7346 16.7083 12.6742 16.7083H5.32567C4.2653 16.7083 3.38815 16.2003 2.52495 15.378C2.14942 15.0202 2.11184 14.7751 2.12809 14.6265C2.14856 14.4392 2.27648 14.1969 2.57659 13.9032C3.06 13.43 3.75335 13.0366 4.34719 12.6997C4.50774 12.6086 4.66113 12.5216 4.80102 12.4383Z" fill="#161616"/>
</svg>
