<svg width="44" height="44" viewBox="0 0 44 44" fill="none" xmlns="http://www.w3.org/2000/svg">
<g clip-path="url(#clip0_5143_90302)">
<path d="M22 0C9.86872 0 0 9.86872 0 22C0 34.1313 9.86872 44 22 44C34.1313 44 44 34.1313 44 22C44 9.86872 34.1313 0 22 0Z" fill="#51DA8A"/>
<path d="M22 31.0932C21.6779 31.0932 21.4078 30.9841 21.1896 30.7659C20.9713 30.5476 20.8626 30.2779 20.8633 29.9566V17.2543L15.3221 22.7956C15.0947 23.0229 14.8246 23.1366 14.5116 23.1366C14.1987 23.1366 13.9289 23.0229 13.7023 22.7956C13.475 22.5682 13.3613 22.303 13.3613 21.9999C13.3613 21.6968 13.475 21.4316 13.7023 21.2042L21.2043 13.7022C21.318 13.5886 21.4411 13.5082 21.5737 13.4613C21.7064 13.4143 21.8484 13.3904 22 13.3896C22.1516 13.3896 22.2986 13.4135 22.441 13.4613C22.5835 13.509 22.7017 13.5893 22.7957 13.7022L30.2977 21.2042C30.525 21.4316 30.6387 21.6968 30.6387 21.9999C30.6387 22.303 30.525 22.5682 30.2977 22.7956C30.0703 23.0229 29.8002 23.1366 29.4872 23.1366C29.1743 23.1366 28.9045 23.0229 28.6779 22.7956L23.1367 17.2543V29.9566C23.1367 30.2786 23.0275 30.5488 22.8093 30.767C22.5911 30.9852 22.3213 31.094 22 31.0932Z" fill="white"/>
</g>
<defs>
<clipPath id="clip0_5143_90302">
<rect width="44" height="44" fill="white"/>
</clipPath>
</defs>
</svg>
